<svg width="10" height="10" viewBox="0 0 10 10" fill="none" xmlns="http://www.w3.org/2000/svg">
<path d="M5 10C7.76142 10 10 7.76142 10 5C10 3.57745 9.4059 2.29365 8.45234 1.38317L8.42022 1.37984L8.69931 4.07802L6.00111 3.79889L6.28026 6.49706L3.58206 6.21794L3.86121 8.91611L1.61968 8.68423C2.5097 9.50126 3.69661 10 5 10Z" fill="#F64848"/>
<path d="M0.686035 7.52939L2.68086 7.73576L2.4017 5.03758L5.09991 5.31671L4.82081 2.61854L7.51895 2.89766L7.27578 0.546747C6.59315 0.197208 5.81961 0 5 0C2.23858 0 0 2.23858 0 5C0 5.92288 0.249987 6.78735 0.686035 7.52939Z" fill="#F64848"/>
</svg>
