<svg width="42" height="24" viewBox="0 0 42 24" fill="none" xmlns="http://www.w3.org/2000/svg">
<path d="M40.9702 12.3789H1.02978C0.461047 12.3789 0 12.8389 0 13.4064V22.9725C0 23.54 0.461047 24 1.02978 24H40.9702C41.5389 24 42 23.54 42 22.9725V13.4064C42 12.8389 41.5389 12.3789 40.9702 12.3789Z" fill="#263238"/>
<path opacity="0.2" d="M40.9703 12.3789H17.71C17.1412 12.3789 16.6802 12.8389 16.6802 13.4064V22.9725C16.6802 23.54 17.1412 24 17.71 24H40.9703C41.539 24 42 23.54 42 22.9725V13.4064C42 12.8389 41.539 12.3789 40.9703 12.3789Z" fill="white"/>
<path opacity="0.1" d="M40.9702 12.3789H1.02978C0.461047 12.3789 0 12.8389 0 13.4064V22.9725C0 23.54 0.461047 24 1.02978 24H40.9702C41.5389 24 42 23.54 42 22.9725V13.4064C42 12.8389 41.5389 12.3789 40.9702 12.3789Z" fill="white"/>
<path d="M34.4541 16.5586H25.698V20.709H34.4541V16.5586Z" fill="#407BFF"/>
<path opacity="0.3" d="M35.1987 16.2217H24.9183V21.0222H35.1987V16.2217Z" fill="black"/>
<path d="M22.1083 6.0093C22.2708 5.84343 22.465 5.71166 22.6793 5.62168C22.8936 5.53171 23.1237 5.48535 23.3562 5.48535C23.5887 5.48535 23.8189 5.53171 24.0332 5.62168C24.2475 5.71166 24.4416 5.84343 24.6042 6.0093" stroke="#407BFF" stroke-linecap="round" stroke-linejoin="round"/>
<path d="M21.189 4.11002C21.7637 3.53862 22.5419 3.21777 23.3533 3.21777C24.1646 3.21777 24.9429 3.53862 25.5175 4.11002" stroke="#407BFF" stroke-width="1.05659" stroke-linecap="round" stroke-linejoin="round"/>
<path d="M20.3629 2.24493C21.1635 1.44773 22.2484 1 23.3795 1C24.5106 1 25.5955 1.44773 26.3962 2.24493" stroke="#407BFF" stroke-linecap="round" stroke-linejoin="round"/>
<path d="M23.8537 8.19363C23.8548 8.29285 23.8263 8.39016 23.7718 8.47314C23.7173 8.55611 23.6392 8.62101 23.5475 8.65951C23.4559 8.69801 23.3548 8.70838 23.2572 8.68931C23.1596 8.67023 23.0699 8.62257 22.9996 8.55241C22.9293 8.48225 22.8815 8.39276 22.8624 8.29539C22.8432 8.19801 22.8536 8.09715 22.8922 8.0057C22.9308 7.91425 22.9958 7.83636 23.079 7.78195C23.1622 7.72754 23.2597 7.69908 23.3592 7.70023C23.4903 7.70023 23.6161 7.75221 23.7088 7.84474C23.8016 7.93728 23.8537 8.06278 23.8537 8.19363Z" fill="#407BFF"/>
</svg>
