<svg width="1024" height="1024" viewBox="0 0 1024 1024" fill="none" xmlns="http://www.w3.org/2000/svg">
<path d="M567.147 216.978C411.65 263.531 68.5671 75.4708 16.4429 303.437C-26.4047 490.532 189.223 678.27 469.697 742.136C668.797 787.483 938.936 709.6 985.017 489.648C1013.84 352.08 897.388 195.002 805.438 163.698C690.522 124.623 668.555 186.667 567.147 216.978Z" fill="#343434" fill-opacity="0.15"/>
<mask id="mask0" mask-type="alpha" maskUnits="userSpaceOnUse" x="14" y="151" width="979" height="604">
<path d="M570.52 216.978C415.024 263.531 71.9404 75.4709 19.8162 303.437C-23.0315 490.532 192.597 678.27 473.07 742.136C672.17 787.483 942.309 709.6 988.39 489.647C1017.22 352.08 900.761 195.002 808.811 163.698C693.896 124.623 671.928 186.667 570.52 216.978Z" fill="#F51010"/>
</mask>
<g mask="url(#mask0)">
<path d="M832.032 324.155C837.975 334.093 843.079 343.944 847.888 354.146C852.707 364.462 856.824 375.027 860.218 385.785C861.081 388.511 861.821 391.326 862.536 394.14C863.09 396.091 863.421 398.088 863.522 400.099C863.606 402.098 863.482 404.1 863.153 406.079C861.852 412.475 859.351 418.63 855.755 424.284C849.538 434.323 841.777 443.537 832.698 451.658C831.53 452.731 829.969 453.393 828.298 453.524C826.628 453.655 824.961 453.245 823.602 452.369C822.243 451.494 821.283 450.211 820.897 448.757C820.512 447.302 820.726 445.772 821.502 444.447L821.675 444.161C827.131 435.204 831.877 425.917 835.879 416.369C837.571 412.346 838.593 408.124 838.912 403.836C838.921 403.136 838.855 402.437 838.715 401.748C838.68 401.528 838.614 401.314 838.517 401.11L838.049 399.813C837.235 397.438 836.397 395.064 835.41 392.689C831.662 383.147 827.051 373.56 822.242 364.106C817.433 354.651 812.378 344.999 807.249 335.83V335.632C805.555 332.691 805.241 329.269 806.376 326.121C807.512 322.973 810.003 320.356 813.303 318.845C816.602 317.335 820.44 317.055 823.971 318.068C827.501 319.08 830.437 321.301 832.131 324.243L832.032 324.155Z" fill="#425DFC"/>
<path d="M824.313 443.215L812.6 446.535L826.458 460.981C829.814 458.163 832.31 454.629 833.708 450.713C834.012 449.707 833.963 448.643 833.566 447.664C833.169 446.685 832.444 445.838 831.489 445.238L829.516 443.963C828.776 443.482 827.919 443.164 827.015 443.034C826.111 442.904 825.185 442.966 824.313 443.215Z" fill="#7F3E3B"/>
<path d="M796.324 455.44L811.169 465.95L826.409 460.981L812.55 446.535L796.324 455.44Z" fill="#7F3E3B"/>
<path d="M745.648 250.608C745.352 251.906 744.341 252.807 743.379 252.653C742.417 252.499 741.899 251.29 742.195 249.993C742.491 248.695 743.502 247.794 744.464 247.948C745.426 248.102 746.018 249.267 745.648 250.608Z" fill="#263238"/>
<path d="M744.464 252.851C741.817 256.511 738.623 259.832 734.97 262.723C735.822 263.539 736.864 264.178 738.023 264.596C739.182 265.014 740.429 265.2 741.678 265.142L744.464 252.851Z" fill="#630F0F"/>
<path d="M752.627 244.364C752.796 244.361 752.961 244.314 753.102 244.229C753.243 244.145 753.354 244.026 753.421 243.887C753.489 243.749 753.51 243.595 753.483 243.446C753.456 243.297 753.381 243.158 753.268 243.045C752.355 242.121 751.206 241.405 749.919 240.958C748.632 240.51 747.244 240.344 745.87 240.472C745.741 240.473 745.614 240.498 745.497 240.547C745.38 240.596 745.277 240.667 745.194 240.755C745.111 240.843 745.051 240.946 745.017 241.057C744.983 241.168 744.977 241.284 744.999 241.398C745.021 241.511 745.07 241.619 745.143 241.713C745.216 241.808 745.312 241.887 745.423 241.946C745.534 242.004 745.658 242.04 745.786 242.052C745.915 242.063 746.044 242.049 746.166 242.011C747.266 241.937 748.37 242.097 749.387 242.48C750.403 242.862 751.303 243.455 752.01 244.21C752.186 244.33 752.407 244.385 752.627 244.364Z" fill="#263238"/>
<path d="M786.165 274.288C783.526 286.337 781.923 303.004 791.368 311.051C791.368 311.051 787.669 323.254 762.59 323.254C734.995 323.254 749.323 312.546 749.323 312.546C760.789 309.358 760.691 297.727 758.052 288.36L786.165 274.288Z" fill="#7F3E3B"/>
<path d="M744.465 310.655C744.465 310.655 748.509 302.168 752.603 300.695C756.696 299.222 782.885 295.396 788.902 298.782C794.919 302.168 799.013 313.03 799.013 313.03L744.465 310.655Z" fill="#3B54E3"/>
<path d="M824.412 311.095C841.674 314.635 853.116 356.256 853.116 356.256L824.24 375.605C813.481 368.743 805.849 358.661 802.736 347.198C796.867 326.574 806.731 307.489 824.412 311.095Z" fill="#6271C8"/>
<path opacity="0.2" d="M809.591 340.052C818.986 348.341 825.053 361.423 825.792 374.55L824.264 375.605C813.522 368.737 805.907 358.655 802.81 347.198C802.464 345.966 802.144 344.735 801.897 343.526L809.591 340.052Z" fill="black"/>
<path d="M791.541 495.522C791.249 494.881 791.177 494.176 791.335 493.498C791.492 492.82 791.872 492.199 792.427 491.714C792.981 491.228 793.684 490.901 794.448 490.773C795.211 490.644 796 490.721 796.714 490.993C797.428 491.265 798.036 491.72 798.46 492.301C798.884 492.881 799.104 493.561 799.094 494.253C799.084 494.946 798.844 495.62 798.403 496.19C797.963 496.761 797.342 497.202 796.621 497.457C795.659 497.798 794.585 497.785 793.634 497.423C792.682 497.061 791.93 496.377 791.541 495.522Z" fill="white"/>
<path d="M715.095 327.607C711.322 345.373 708.954 381.893 720.027 454.187H818.666C816.891 441.654 809.813 374.769 824.437 311.095C813.522 309.229 802.485 307.988 791.392 307.379C777.43 306.655 763.433 306.655 749.471 307.379C744.835 307.753 740.297 308.347 736.253 308.984C731.023 309.807 726.198 312.029 722.419 315.356C718.64 318.682 716.085 322.955 715.095 327.607Z" fill="#B3BEFE"/>
<path opacity="0.2" d="M730.63 354.981L712.086 356.3C711.42 377.694 713.072 408.915 719.928 454.187H720.815C731.937 421.58 746.684 374.967 730.63 354.981Z" fill="#727AA2"/>
<path d="M794.943 256.677C790.209 272.463 788.31 281.896 777.41 288.47C760.987 298.32 740.42 286.997 739.878 270.287C739.311 255.226 747.153 231.963 766.141 228.775C770.325 228.058 774.645 228.305 778.691 229.495C782.738 230.684 786.376 232.775 789.262 235.57C792.147 238.365 794.183 241.771 795.178 245.465C796.172 249.159 796.092 253.018 794.943 256.677Z" fill="#7F3E3B"/>
<path d="M753.416 256.787L743.823 258.985L752.75 238.34C750.389 233.283 750.101 227.648 751.936 222.421C752.277 221.492 752.937 220.683 753.822 220.107C754.707 219.531 755.772 219.218 756.868 219.211C776.744 218.881 797.532 228.819 807.988 236.339C808.963 237.04 809.619 238.033 809.832 239.134C810.046 240.235 809.802 241.367 809.147 242.319C806.57 245.726 803.549 248.848 800.146 251.62C799.949 257.402 789.37 283.501 783.525 286.447C777.681 289.394 766.461 288.184 763.477 283.413C760.493 278.642 750.481 272.354 753.416 256.787Z" fill="#263238"/>
<path d="M762.393 257.117C761.299 261.052 758.787 264.559 755.241 267.099C750.531 270.397 746.857 267.363 747.054 262.503C747.227 258.106 749.89 251.158 755.143 249.729C760.395 248.3 763.626 252.345 762.393 257.117Z" fill="#7F3E3B"/>
<path d="M754.945 454.187C754.945 454.187 797.385 580.613 813.512 627.533C831.144 678.917 898.268 849.383 898.268 849.383L930.819 843.007C930.819 843.007 884.829 696.551 865.766 624.873C851.118 569.905 818.641 454.187 818.641 454.187H754.945Z" fill="#425DFC"/>
<path opacity="0.3" d="M778.445 512.783C801.946 515.531 811.292 588.55 814.819 631.381C814.375 630.018 813.906 628.743 813.487 627.511C804.708 601.896 788.063 552.535 774.746 513.024C775.941 512.686 777.208 512.603 778.445 512.783Z" fill="black" fill-opacity="0.4"/>
<path d="M719.929 454.187C719.929 454.187 734.157 577.315 740.298 627.423C746.66 679.555 770.679 850.548 770.679 850.548H801.947C801.947 850.548 798.15 682.677 796.892 631.403C795.511 575.512 784.858 454.187 784.858 454.187H719.929Z" fill="#425DFC"/>
<path d="M586.394 570.015C592.235 578.268 600.689 584.792 610.688 588.761C620.687 592.73 631.781 593.966 642.568 592.313C653.355 590.66 663.35 586.192 671.289 579.474C679.227 572.756 684.753 564.09 687.168 554.571C689.582 545.053 688.777 535.11 684.853 526C680.93 516.889 674.064 509.021 665.125 503.39C656.186 497.759 645.575 494.618 634.633 494.365C623.692 494.111 612.912 496.756 603.656 501.965C597.51 505.421 592.187 509.923 587.992 515.214C583.798 520.505 580.814 526.481 579.211 532.801C577.608 539.12 577.417 545.66 578.65 552.045C579.882 558.431 582.514 564.537 586.394 570.015ZM672.704 521.643C677.618 528.591 680.11 536.683 679.867 544.894C679.623 553.105 676.654 561.067 671.336 567.774C666.017 574.481 658.588 579.631 649.987 582.573C641.386 585.515 631.999 586.118 623.014 584.304C614.029 582.49 605.849 578.342 599.508 572.383C593.167 566.425 588.95 558.924 587.39 550.828C585.83 542.733 586.998 534.407 590.745 526.903C594.491 519.399 600.649 513.055 608.44 508.671C618.871 502.811 631.482 500.876 643.509 503.291C655.536 505.706 666 512.274 672.605 521.555L672.704 521.643Z" fill="#263238"/>
<path opacity="0.2" d="M674.824 552.117C672.945 559.452 668.669 566.125 662.538 571.294C656.407 576.463 648.695 579.896 640.376 581.159C632.058 582.422 623.506 581.459 615.802 578.391C608.097 575.322 601.585 570.287 597.089 563.92C592.593 557.554 590.314 550.142 590.539 542.621C590.765 535.1 593.486 527.808 598.358 521.665C603.23 515.522 610.035 510.805 617.913 508.108C625.791 505.412 634.388 504.858 642.618 506.516C648.091 507.625 653.266 509.684 657.846 512.575C662.427 515.467 666.324 519.135 669.314 523.369C672.305 527.604 674.331 532.322 675.276 537.255C676.222 542.187 676.068 547.238 674.824 552.117Z" fill="#3B54E3"/>
<path d="M681.508 511.419L686.711 518.763C686.898 519.027 687.024 519.321 687.083 519.629C687.141 519.937 687.132 520.252 687.054 520.556C686.976 520.86 686.832 521.148 686.629 521.402C686.426 521.657 686.169 521.873 685.873 522.039C685.271 522.376 684.544 522.486 683.85 522.346C683.157 522.206 682.554 521.827 682.174 521.291L676.995 513.97C676.618 513.433 676.494 512.785 676.651 512.166C676.808 511.548 677.233 511.011 677.834 510.672C678.129 510.503 678.459 510.388 678.805 510.334C679.151 510.28 679.505 510.288 679.847 510.357C680.189 510.427 680.512 510.557 680.798 510.739C681.083 510.921 681.324 511.153 681.508 511.419Z" fill="#263238"/>
<path d="M715.07 490.554C709.07 494.218 703.135 497.949 697.266 501.745C691.372 505.571 685.552 509.462 680.004 513.596C679.335 514.112 678.895 514.824 678.764 515.605C678.634 516.385 678.821 517.181 679.292 517.848C679.763 518.516 680.487 519.011 681.333 519.243C682.178 519.475 683.089 519.43 683.9 519.115C690.509 516.344 696.97 513.332 703.381 510.32C709.793 507.308 716.106 504.054 722.37 500.822C727.713 498.051 733.023 495.222 738.3 492.335C738.658 492.137 738.968 491.878 739.214 491.573C739.46 491.268 739.636 490.923 739.732 490.558C739.828 490.193 739.843 489.814 739.775 489.443C739.707 489.073 739.557 488.718 739.336 488.399L734.946 482.33C734.72 482.012 734.426 481.736 734.08 481.52C733.735 481.303 733.344 481.149 732.932 481.068C732.519 480.986 732.093 480.978 731.677 481.043C731.261 481.109 730.863 481.248 730.507 481.451C725.329 484.529 720.175 487.453 715.07 490.554Z" fill="#263238"/>
<path d="M742.565 333.764C739.557 346.956 736.351 360.111 732.948 373.23L722.739 412.499C719.41 425.296 716.574 438.268 713.985 451.439L706.241 491.015C705.955 492.535 705.045 493.905 703.688 494.858C702.331 495.812 700.624 496.281 698.9 496.174C697.176 496.067 695.559 495.391 694.363 494.279C693.168 493.167 692.479 491.698 692.432 490.158C691.889 476.416 692.136 462.828 692.999 449.152C693.851 435.395 695.498 421.686 697.931 408.08C700.397 394.624 703.035 381.322 705.945 368.041C708.855 354.761 711.938 341.525 715.365 328.465C716.193 325.27 718.399 322.495 721.505 320.74C724.611 318.985 728.367 318.391 731.961 319.088C735.554 319.785 738.695 321.716 740.703 324.463C742.711 327.21 743.424 330.551 742.689 333.764H742.565Z" fill="#425DFC"/>
<path d="M704.096 487.453C703.474 486.869 702.691 486.442 701.825 486.214C700.959 485.986 700.041 485.966 699.164 486.156L695.169 487.013C694.164 487.225 693.255 487.704 692.563 488.388C691.872 489.071 691.43 489.926 691.297 490.839L690.138 498.777C689.777 501.067 690.318 503.398 691.667 505.373L697.191 513.508C697.898 514.345 698.859 514.984 699.96 515.35C701.061 515.716 702.256 515.794 703.405 515.575L709.151 514.497C710.001 514.335 710.804 514.015 711.507 513.559C712.21 513.103 712.797 512.52 713.232 511.849C713.667 511.178 713.938 510.432 714.03 509.661C714.121 508.891 714.03 508.111 713.762 507.374L712.258 503.24C711.703 497.286 708.813 491.697 704.096 487.453Z" fill="#7F3E3B"/>
<path d="M761.776 326.222C770.752 347.44 739.73 377.716 739.73 377.716L700.446 366.129C700.446 366.129 703.455 337.172 717.092 320.835C733.91 300.585 754.945 309.974 761.776 326.222Z" fill="#6271C8"/>
</g>
<path opacity="0.5" d="M156.926 110H140.954V111.716H156.926V110Z" fill="#6C6B86"/>
<path opacity="0.5" d="M125.444 110H89.0754V111.716H125.444V110Z" fill="#6C6B86"/>
<path opacity="0.5" d="M294.635 267.005H95.382C89.1404 266.901 83.1593 264.756 78.5751 260.978C73.9909 257.2 71.1232 252.052 70.5169 246.512L60.5398 137.259C60.2498 134.644 60.5825 132.004 61.5162 129.511C62.4499 127.019 63.9636 124.73 65.958 122.796C67.9525 120.861 70.3828 119.324 73.0898 118.284C75.7968 117.245 78.7194 116.728 81.6664 116.765H280.919C287.16 116.874 293.138 119.02 297.721 122.798C302.304 126.575 305.173 131.721 305.785 137.259L315.762 246.512C316.052 249.127 315.719 251.767 314.785 254.26C313.851 256.752 312.338 259.04 310.343 260.975C308.349 262.91 305.919 264.447 303.212 265.486C300.505 266.525 297.582 267.043 294.635 267.005Z" fill="white"/>
<path opacity="0.5" d="M294.635 267.873H95.3817C88.8976 267.774 82.6815 265.549 77.9198 261.623C73.1581 257.698 70.1841 252.347 69.5653 246.591L59.5883 137.338C59.289 134.602 59.6409 131.841 60.6208 129.235C61.6007 126.629 63.1865 124.237 65.2747 122.215C67.3629 120.193 69.9062 118.587 72.7385 117.502C75.5707 116.416 78.628 115.877 81.7103 115.917H280.963C287.448 116.017 293.664 118.242 298.425 122.167C303.187 126.093 306.161 131.444 306.78 137.2L316.757 246.453C317.056 249.188 316.704 251.949 315.724 254.555C314.744 257.161 313.159 259.554 311.07 261.576C308.982 263.598 306.439 265.204 303.607 266.289C300.774 267.374 297.717 267.914 294.635 267.873ZM81.6661 117.614C78.8468 117.567 76.0484 118.054 73.4563 119.044C70.8641 120.033 68.5373 121.503 66.6299 123.354C64.7226 125.206 63.2781 127.398 62.3921 129.785C61.5061 132.172 61.1989 134.699 61.4908 137.2L71.4678 246.453C72.0427 251.785 74.7976 256.742 79.2078 260.379C83.6179 264.017 89.3749 266.081 95.3817 266.177H294.635C297.452 266.224 300.248 265.737 302.839 264.748C305.429 263.76 307.755 262.292 309.662 260.443C311.569 258.593 313.014 256.404 313.901 254.019C314.789 251.635 315.099 249.11 314.81 246.611L304.833 137.358C304.254 132.027 301.497 127.073 297.088 123.436C292.679 119.799 286.924 117.734 280.919 117.633L81.6661 117.614Z" fill="#6C6B86"/>
<path opacity="0.5" d="M78.5688 148.107H184.157L183.294 138.817H77.7061L78.5688 148.107Z" fill="#E0E0E0"/>
<path opacity="0.5" d="M289.745 148.107H184.157L183.294 138.817H288.905L289.745 148.107Z" fill="#6C6B86"/>
<path opacity="0.5" d="M80.781 172.329H110.889L110.048 163.019H79.9182L80.781 172.329Z" fill="#E0E0E0"/>
<path opacity="0.5" d="M291.958 172.329H110.889L110.049 163.019H291.118L291.958 172.329Z" fill="#6C6B86"/>
<path opacity="0.5" d="M82.9934 196.531H176.968L176.127 187.24H82.1306L82.9934 196.531Z" fill="#E0E0E0"/>
<path opacity="0.5" d="M294.17 196.531H176.968L176.127 187.24H293.329L294.17 196.531Z" fill="#6C6B86"/>
<path opacity="0.5" d="M85.2068 220.752H245.613L244.751 211.462H84.344L85.2068 220.752Z" fill="#E0E0E0"/>
<path opacity="0.5" d="M296.383 220.752H245.613L244.75 211.462H295.52L296.383 220.752Z" fill="#6C6B86"/>
<path opacity="0.5" d="M87.3958 244.973H161.593L160.752 235.664H86.5552L87.3958 244.973Z" fill="#E0E0E0"/>
<path opacity="0.5" d="M298.595 244.973H161.593L160.752 235.664H297.732L298.595 244.973Z" fill="#6C6B86"/>
<path opacity="0.5" d="M567.046 267.005H367.793C361.563 266.887 355.598 264.735 351.028 260.959C346.457 257.182 343.599 252.042 342.994 246.512L333.017 137.259C332.728 134.651 333.058 132.017 333.987 129.53C334.915 127.043 336.421 124.759 338.406 122.825C340.391 120.892 342.81 119.353 345.506 118.309C348.203 117.265 351.115 116.739 354.055 116.765H553.33C559.57 116.874 565.549 119.02 570.132 122.798C574.715 126.575 577.584 131.721 578.195 137.259L588.172 246.512C588.462 249.127 588.13 251.767 587.196 254.26C586.262 256.752 584.749 259.04 582.754 260.975C580.76 262.91 578.329 264.447 575.622 265.486C572.915 266.526 569.993 267.043 567.046 267.005Z" fill="white"/>
<path opacity="0.5" d="M567.045 267.873H367.792C361.314 267.749 355.111 265.516 350.352 261.596C345.593 257.675 342.606 252.339 341.954 246.591L331.933 137.338C331.633 134.602 331.985 131.841 332.965 129.235C333.945 126.629 335.531 124.237 337.619 122.215C339.707 120.193 342.25 118.587 345.083 117.502C347.915 116.416 350.972 115.877 354.055 115.917H553.33C559.814 116.017 566.03 118.242 570.792 122.167C575.553 126.093 578.527 131.444 579.146 137.2L589.123 246.453C589.422 249.188 589.071 251.949 588.091 254.555C587.111 257.161 585.525 259.554 583.437 261.576C581.349 263.598 578.805 265.204 575.973 266.289C573.141 267.374 570.083 267.914 567.001 267.873H567.045ZM354.055 117.614C351.237 117.569 348.441 118.059 345.852 119.05C343.262 120.041 340.938 121.511 339.033 123.362C337.128 125.213 335.686 127.404 334.801 129.79C333.916 132.175 333.61 134.701 333.901 137.2L343.878 246.453C344.453 251.785 347.208 256.742 351.618 260.379C356.029 264.017 361.786 266.081 367.792 266.177H567.045C569.863 266.224 572.659 265.737 575.249 264.748C577.84 263.76 580.165 262.292 582.072 260.443C583.979 258.593 585.424 256.404 586.312 254.019C587.199 251.635 587.509 249.11 587.221 246.611L577.244 137.358C576.664 132.027 573.908 127.073 569.499 123.436C565.089 119.799 559.335 117.734 553.33 117.633L354.055 117.614Z" fill="#6C6B86"/>
<path opacity="0.5" d="M467.164 244.973H463.646L453.957 138.817H457.474L467.164 244.973Z" fill="#E0E0E0"/>
<path opacity="0.5" d="M472.473 200.85H450.285L446.48 159.39H468.691L472.473 200.85Z" fill="#6C6B86"/>
<path opacity="0.5" d="M423.473 244.973H419.956L410.266 138.817H413.784L423.473 244.973Z" fill="#E0E0E0"/>
<path opacity="0.5" d="M429.645 210.061H407.434L404.116 173.71H426.304L429.645 210.061Z" fill="#6C6B86"/>
<path opacity="0.5" d="M379.805 244.973H376.287L366.598 138.817H370.115L379.805 244.973Z" fill="#E0E0E0"/>
<path opacity="0.5" d="M383.233 180.159H361.045L358.766 155.208H380.955L383.233 180.159Z" fill="#CFCFCF"/>
<path opacity="0.5" d="M510.832 244.973H507.315L497.625 138.817H501.143L510.832 244.973Z" fill="#E0E0E0"/>
<path opacity="0.5" d="M518.288 224.401H496.1L490.171 159.39H512.359L518.288 224.401Z" fill="#CFCFCF"/>
<path opacity="0.5" d="M554.525 244.973H550.986L541.296 138.817H544.814L554.525 244.973Z" fill="#E0E0E0"/>
<path opacity="0.5" d="M562.687 232.192H540.499L535.742 180.12H557.931L562.687 232.192Z" fill="#6C6B86"/>
<path opacity="0.5" d="M353.811 605.238H154.536C148.297 605.125 142.321 602.977 137.739 599.201C133.157 595.424 130.286 590.281 129.671 584.744L119.716 475.511C119.426 472.898 119.758 470.259 120.691 467.768C121.623 465.277 123.135 462.99 125.127 461.055C127.119 459.121 129.546 457.583 132.251 456.543C134.955 455.502 137.875 454.983 140.82 455.018H340.095C346.334 455.13 352.31 457.278 356.892 461.055C361.474 464.831 364.345 469.975 364.961 475.511L374.938 584.764C375.221 587.377 374.883 590.014 373.947 592.502C373.01 594.991 371.496 597.276 369.502 599.207C367.509 601.139 365.081 602.675 362.378 603.714C359.674 604.753 356.755 605.272 353.811 605.238Z" fill="white"/>
<path opacity="0.5" d="M353.811 606.086H154.536C148.053 605.982 141.84 603.756 137.079 599.831C132.318 595.906 129.343 590.558 128.72 584.803L118.743 475.511C118.443 472.775 118.795 470.014 119.775 467.408C120.755 464.802 122.341 462.41 124.429 460.388C126.517 458.366 129.061 456.76 131.893 455.675C134.725 454.59 137.782 454.05 140.865 454.09H340.14C346.639 454.208 352.862 456.457 357.617 460.41C362.372 464.362 365.325 469.739 365.912 475.511L375.889 584.744C376.188 587.48 375.836 590.241 374.857 592.847C373.877 595.453 372.291 597.845 370.203 599.867C368.114 601.889 365.571 603.495 362.739 604.58C359.907 605.666 356.849 606.206 353.767 606.165L353.811 606.086ZM140.82 455.787C137.988 455.74 135.178 456.233 132.577 457.232C129.975 458.231 127.643 459.714 125.735 461.581C123.828 463.448 122.389 465.656 121.515 468.058C120.641 470.46 120.352 473.001 120.667 475.511L130.622 584.665C131.196 589.994 133.948 594.948 138.354 598.585C142.759 602.223 148.511 604.288 154.514 604.39H353.789C356.607 604.434 359.402 603.944 361.992 602.953C364.581 601.962 366.905 600.493 368.81 598.641C370.715 596.79 372.158 594.599 373.043 592.214C373.927 589.828 374.234 587.302 373.942 584.803L364.009 475.511C363.43 470.181 360.674 465.226 356.264 461.589C351.855 457.953 346.101 455.887 340.096 455.787H140.82Z" fill="#6C6B86"/>
<path opacity="0.5" d="M167.787 527.504L210.726 571.746L259.992 504.013L290.432 539.023L297.865 528.806L347.661 582.002L156.438 581.943L167.787 527.504Z" fill="#6C6B86" fill-opacity="0.5"/>
<path opacity="0.5" d="M311.16 530.266L291.206 568.373L227.539 478.233L197.564 535.473L187.941 521.883L156.461 582.002L347.639 581.904L311.16 530.266Z" fill="#6C6B86"/>
<path d="M428.362 436.832H229.087C222.847 436.723 216.868 434.577 212.285 430.799C207.702 427.022 204.833 421.876 204.222 416.338L194.245 307.105C193.955 304.489 194.287 301.848 195.221 299.354C196.155 296.861 197.668 294.571 199.662 292.635C201.656 290.699 204.086 289.16 206.793 288.118C209.5 287.077 212.423 286.557 215.371 286.592H414.624C420.868 286.701 426.849 288.85 431.433 292.631C436.016 296.413 438.883 301.563 439.489 307.105L449.466 416.338C449.756 418.951 449.424 421.59 448.492 424.081C447.559 426.572 446.047 428.86 444.055 430.794C442.063 432.728 439.636 434.266 436.931 435.306C434.227 436.347 431.307 436.867 428.362 436.832Z" fill="url(#paint0_linear)" fill-opacity="0.45"/>
<path d="M428.362 437.68H229.087C222.592 437.579 216.367 435.345 211.604 431.408C206.841 427.47 203.874 422.104 203.27 416.338L193.293 307.085C192.994 304.349 193.346 301.588 194.326 298.982C195.305 296.376 196.891 293.984 198.98 291.962C201.068 289.94 203.611 288.334 206.443 287.249C209.276 286.164 212.333 285.624 215.415 285.664H414.668C421.152 285.764 427.368 287.989 432.13 291.914C436.892 295.84 439.866 301.191 440.485 306.947L450.417 416.338C450.717 419.074 450.365 421.835 449.385 424.441C448.405 427.047 446.819 429.439 444.731 431.461C442.643 433.483 440.099 435.089 437.267 436.174C434.435 437.259 431.378 437.799 428.295 437.759L428.362 437.68ZM215.371 287.44C212.554 287.393 209.757 287.88 207.167 288.868C204.576 289.857 202.251 291.325 200.344 293.174C198.437 295.024 196.992 297.213 196.104 299.597C195.217 301.982 194.907 304.507 195.196 307.006L205.173 416.338C205.747 421.67 208.502 426.627 212.913 430.265C217.323 433.902 223.08 435.966 229.087 436.062H428.362C431.194 436.109 434.004 435.616 436.606 434.617C439.207 433.618 441.539 432.135 443.447 430.268C445.354 428.401 446.793 426.193 447.667 423.791C448.541 421.389 448.83 418.848 448.515 416.338L438.538 307.085C437.963 301.753 435.208 296.796 430.798 293.158C426.388 289.521 420.631 287.457 414.624 287.361L215.371 287.44Z" fill="url(#paint1_linear)"/>
<path d="M326.194 356.647L328.677 354.989L324.979 349.355L322.497 351.013L326.194 356.647Z" fill="white"/>
<path d="M328.341 354.189L325.316 355.775C325.289 355.787 325.266 355.803 325.247 355.824C325.229 355.844 325.214 355.867 325.206 355.892C325.197 355.917 325.194 355.944 325.197 355.97C325.2 355.996 325.209 356.021 325.223 356.044L326.487 358.247C326.522 358.304 326.57 358.353 326.627 358.393C326.685 358.433 326.751 358.462 326.821 358.478C326.891 358.495 326.965 358.499 327.037 358.49C327.109 358.481 327.178 358.459 327.24 358.425C328.281 357.861 328.633 357.5 329.951 356.801C330.769 356.372 332.309 355.669 333.654 354.917C334.998 354.165 333.767 353.471 332.981 353.803C331.756 354.285 330 354.228 328.883 354.097C328.696 354.076 328.506 354.108 328.341 354.189Z" fill="white"/>
<path d="M329.571 354.107C329.326 354.23 329.066 354.327 328.796 354.396C328.783 354.4 328.769 354.401 328.755 354.398C328.741 354.395 328.729 354.388 328.72 354.379C328.711 354.369 328.705 354.358 328.703 354.345C328.701 354.333 328.703 354.321 328.709 354.309C328.758 354.213 329.213 353.345 329.62 353.292C329.666 353.285 329.713 353.289 329.757 353.304C329.801 353.318 329.84 353.342 329.869 353.374C329.922 353.416 329.962 353.47 329.984 353.53C330.006 353.591 330.009 353.655 329.994 353.717C329.911 353.888 329.761 354.027 329.571 354.107ZM328.915 354.227C329.457 354.059 329.799 353.861 329.853 353.683C329.861 353.642 329.857 353.601 329.842 353.562C329.827 353.523 329.801 353.488 329.766 353.461C329.751 353.445 329.732 353.433 329.71 353.425C329.688 353.418 329.665 353.415 329.642 353.418C329.425 353.451 329.11 353.885 328.915 354.227Z" fill="white"/>
<path d="M328.812 354.391H328.78C328.767 354.392 328.754 354.389 328.743 354.384C328.732 354.379 328.722 354.372 328.715 354.362C328.715 354.338 328.173 353.678 328.292 353.302C328.307 353.254 328.335 353.209 328.372 353.172C328.41 353.134 328.456 353.104 328.509 353.085C328.564 353.059 328.628 353.05 328.69 353.06C328.752 353.069 328.808 353.097 328.85 353.138C328.95 353.329 329.002 353.537 329.002 353.748C329.002 353.959 328.95 354.167 328.85 354.358L328.812 354.391ZM328.536 353.23C328.51 353.242 328.487 353.259 328.469 353.28C328.451 353.301 328.439 353.325 328.433 353.35C328.438 353.659 328.554 353.958 328.764 354.203C328.898 353.893 328.898 353.55 328.764 353.239C328.74 353.221 328.709 353.21 328.677 353.21C328.645 353.21 328.614 353.221 328.59 353.239L328.536 353.23Z" fill="white"/>
<path d="M322.497 351.013L324.979 349.355L327.094 352.579L324.535 354.121L322.497 351.013Z" fill="white"/>
<path d="M323.223 353.909L327.587 351.567L326.834 349.996L322.128 352.623L323.223 353.909Z" fill="white"/>
<path d="M334.445 357.934L337.063 356.411L333.713 350.685L331.095 352.208L334.445 357.934Z" fill="white"/>
<path d="M332.721 354.984L335.388 353.543L333.713 350.685L331.095 352.208L332.721 354.984Z" fill="white"/>
<path d="M336.619 355.191L333.138 355.625C333.109 355.628 333.081 355.635 333.055 355.647C333.029 355.66 333.006 355.676 332.987 355.696C332.969 355.717 332.955 355.74 332.946 355.765C332.938 355.79 332.935 355.816 332.938 355.842L333.155 358.31C333.163 358.374 333.186 358.435 333.222 358.491C333.258 358.547 333.306 358.596 333.364 358.635C333.422 358.674 333.488 358.703 333.558 358.719C333.628 358.735 333.701 358.738 333.773 358.729C334.982 358.56 335.453 358.247 336.96 357.977C338.447 357.778 339.92 357.507 341.373 357.163C342.588 356.787 342.333 355.755 341.297 355.856C339.964 355.987 338.148 355.799 337.177 355.297C337.009 355.209 336.813 355.172 336.619 355.191Z" fill="white"/>
<path d="M331.241 354.753L335.985 352.338L335.296 350.589L330.075 353.162L331.241 354.753Z" fill="white"/>
<path d="M337.79 355.538C337.511 355.565 337.229 355.565 336.95 355.538C336.935 355.537 336.922 355.533 336.91 355.525C336.898 355.517 336.89 355.507 336.885 355.495C336.878 355.485 336.875 355.473 336.875 355.461C336.875 355.45 336.878 355.438 336.885 355.428C336.971 355.355 337.768 354.714 338.164 354.801C338.21 354.81 338.252 354.829 338.286 354.857C338.32 354.885 338.346 354.92 338.359 354.96C338.39 355.017 338.403 355.08 338.397 355.142C338.391 355.205 338.367 355.265 338.327 355.317C338.182 355.444 337.993 355.523 337.79 355.538ZM337.134 355.423C337.676 355.452 338.11 355.384 338.218 355.24C338.242 355.204 338.254 355.163 338.254 355.122C338.254 355.08 338.242 355.039 338.218 355.003C338.212 354.984 338.2 354.967 338.184 354.954C338.168 354.94 338.148 354.931 338.126 354.926C337.936 354.878 337.459 355.177 337.134 355.428V355.423Z" fill="white"/>
<path d="M336.966 355.538H336.933C336.922 355.534 336.911 355.528 336.903 355.519C336.894 355.511 336.888 355.501 336.885 355.49C336.885 355.456 336.684 354.676 336.955 354.367C336.988 354.327 337.031 354.295 337.081 354.273C337.131 354.252 337.187 354.241 337.242 354.242C337.304 354.235 337.367 354.247 337.42 354.276C337.473 354.305 337.514 354.349 337.535 354.401C337.546 354.612 337.502 354.823 337.408 355.018C337.314 355.212 337.172 355.385 336.993 355.524C336.99 355.528 336.986 355.531 336.981 355.534C336.977 355.536 336.971 355.538 336.966 355.538ZM337.215 354.372C337.186 354.375 337.158 354.383 337.133 354.397C337.107 354.41 337.086 354.428 337.069 354.449C336.937 354.734 336.914 355.049 337.004 355.346C337.258 355.1 337.4 354.778 337.4 354.444C337.4 354.411 337.356 354.367 337.248 354.367L337.215 354.372Z" fill="white"/>
<path d="M329.636 353.423C329.66 353.42 329.683 353.423 329.705 353.43C329.727 353.438 329.746 353.45 329.761 353.466C329.787 353.488 329.807 353.514 329.821 353.543C329.835 353.572 329.842 353.603 329.842 353.635L329.967 353.755V353.721C329.982 353.66 329.979 353.595 329.957 353.535C329.935 353.475 329.895 353.421 329.842 353.379C329.813 353.347 329.774 353.323 329.73 353.309C329.686 353.294 329.639 353.29 329.593 353.297L329.512 353.326L329.636 353.423Z" fill="white"/>
<path d="M326.834 349.996L326.611 350.116L327.262 350.883L326.834 349.996Z" fill="white"/>
<path d="M269.629 368.922H263.329C257.192 368.922 252.221 375.188 252.221 382.899C252.221 390.61 257.192 396.875 263.329 396.875H269.629C272.608 396.875 280.737 390.61 280.737 382.899C280.737 375.188 275.766 368.922 269.629 368.922Z" fill="white"/>
<path d="M339.521 361.31H333.216C327.085 361.31 322.108 367.575 322.108 375.286C322.108 382.997 327.085 389.263 333.216 389.263H339.521C345.658 389.263 350.629 382.997 350.629 375.286C350.629 367.575 345.658 361.31 339.521 361.31Z" fill="white"/>
<path d="M304.287 365.216L230.78 375.963V379.525L233.252 385.265L234.738 385.863C242 388.769 249.873 390.272 257.838 390.273H400.779C403.12 390.273 405.438 389.864 407.601 389.068C409.764 388.271 411.729 387.104 413.384 385.631L405.967 365.235L304.287 365.216Z" fill="white"/>
<path d="M414.625 380.913C413.514 380.911 412.45 380.517 411.665 379.819C410.88 379.121 410.437 378.175 410.434 377.188V375.294C410.437 374.306 410.88 373.36 411.665 372.662C412.45 371.964 413.514 371.571 414.625 371.568C415.736 371.571 416.8 371.964 417.585 372.662C418.37 373.36 418.813 374.306 418.816 375.294V377.188C418.813 378.175 418.37 379.121 417.585 379.819C416.8 380.517 415.736 380.911 414.625 380.913Z" fill="white"/>
<path d="M416.837 370.782L415.27 384.051C415.126 385.223 414.502 386.308 413.518 387.1C412.534 387.891 411.257 388.334 409.93 388.345H406.076C406.618 386.57 406.888 384.738 406.878 382.899C406.878 374.383 401.148 367.447 394.116 367.447H387.817C380.769 367.447 375.055 374.383 375.055 382.899C375.049 384.744 375.326 386.581 375.879 388.359H337.438C337.988 386.581 338.266 384.744 338.262 382.899C338.262 374.383 332.537 367.447 325.505 367.447H319.206C312.158 367.447 306.444 374.383 306.444 382.899C306.445 383.732 306.501 384.564 306.612 385.39L299.527 384.345H288.495L278.324 381.593H233.941L233.046 383.964H230.276C226.611 365.881 232.444 350.892 232.444 350.892C244.555 345.441 257.274 341.13 270.393 338.029H349.966C353.307 338.034 356.546 339.054 359.144 340.921L379.062 355.177C382.785 357.846 387.109 359.776 391.742 360.835L412.831 365.679C414.069 365.971 415.151 366.644 415.885 367.579C416.618 368.513 416.955 369.648 416.837 370.782Z" fill="white"/>
<path d="M238.343 352.276C247.662 347.512 257.486 343.575 267.672 340.521C268.571 340.26 269.512 340.129 270.458 340.13H308.7C308.845 340.146 308.982 340.199 309.095 340.282C309.208 340.365 309.292 340.475 309.337 340.599C309.382 340.723 309.386 340.856 309.349 340.982C309.312 341.108 309.235 341.222 309.128 341.311C304.497 344.235 300.156 347.506 296.155 351.09C295.318 351.852 294.318 352.458 293.214 352.872C292.109 353.286 290.923 353.499 289.725 353.5H238.728C238.575 353.485 238.43 353.43 238.313 353.341C238.195 353.253 238.11 353.135 238.069 353.003C238.027 352.872 238.031 352.732 238.08 352.602C238.129 352.472 238.22 352.359 238.343 352.276Z" fill="white"/>
<path d="M288.348 361.211H229.907C229.035 366.673 228.853 372.205 229.365 377.703H289.92L288.348 361.211Z" fill="white"/>
<path d="M297.234 361.225H288.348L289.91 377.718H299.619L297.234 361.225Z" fill="white"/>
<path d="M325.359 341.933L327.739 354.391C327.798 354.701 327.781 355.017 327.688 355.32C327.595 355.623 327.429 355.903 327.201 356.143C326.973 356.383 326.69 356.575 326.37 356.707C326.05 356.839 325.701 356.907 325.348 356.907H310.602C309.953 356.908 309.314 356.758 308.75 356.472C308.185 356.187 307.714 355.775 307.383 355.279C307.051 354.782 306.871 354.218 306.859 353.64C306.848 353.063 307.006 352.493 307.317 351.986L313.579 341.865C313.896 341.344 314.366 340.909 314.938 340.604C315.511 340.3 316.164 340.138 316.831 340.135H322.936C323.515 340.128 324.077 340.305 324.522 340.635C324.966 340.965 325.263 341.425 325.359 341.933Z" fill="white"/>
<path d="M362.05 356.912H332.949C332.376 356.911 331.821 356.73 331.384 356.401C330.946 356.072 330.654 355.616 330.558 355.114L328.183 342.675C328.125 342.366 328.143 342.049 328.237 341.747C328.331 341.444 328.497 341.164 328.725 340.925C328.954 340.686 329.238 340.494 329.558 340.362C329.878 340.231 330.227 340.163 330.58 340.164L351.511 340.207C352.019 340.213 352.521 340.309 352.987 340.491C353.452 340.672 353.872 340.935 354.222 341.263L364.793 351.326C365.29 351.8 365.621 352.392 365.743 353.031C365.866 353.67 365.777 354.326 365.485 354.92C365.193 355.514 364.713 356.019 364.102 356.373C363.492 356.726 362.779 356.914 362.05 356.912Z" fill="white"/>
<path d="M280.298 374.903C282.923 374.903 285.052 372.735 285.052 370.06C285.052 367.385 282.923 365.216 280.298 365.216C277.672 365.216 275.543 367.385 275.543 370.06C275.543 372.735 277.672 374.903 280.298 374.903Z" fill="white"/>
<path d="M236.424 374.903C239.049 374.903 241.178 372.735 241.178 370.06C241.178 367.385 239.049 365.216 236.424 365.216C233.798 365.216 231.669 367.385 231.669 370.06C231.669 372.735 233.798 374.903 236.424 374.903Z" fill="white"/>
<path d="M319.206 368.922H325.505V396.875H319.206C313.069 396.875 308.098 390.61 308.098 382.899C308.098 375.188 313.069 368.922 319.206 368.922Z" fill="white"/>
<path d="M325.505 396.87C331.64 396.87 336.613 390.609 336.613 382.884C336.613 375.16 331.64 368.898 325.505 368.898C319.371 368.898 314.397 375.16 314.397 382.884C314.397 390.609 319.371 396.87 325.505 396.87Z" fill="white"/>
<path d="M325.505 391.603C329.329 391.603 332.428 387.699 332.428 382.884C332.428 378.069 329.329 374.166 325.505 374.166C321.682 374.166 318.582 378.069 318.582 382.884C318.582 387.699 321.682 391.603 325.505 391.603Z" fill="white"/>
<path d="M320.198 382.899C320.198 386.036 321.434 388.576 323.922 388.576C326.411 388.576 328.433 386.036 328.433 382.899C328.433 379.761 326.443 377.212 323.922 377.212C321.402 377.212 320.198 379.752 320.198 382.899Z" fill="white"/>
<path d="M387.812 368.922H394.116V396.875H387.812C381.68 396.875 376.709 390.61 376.709 382.899C376.709 375.188 381.68 368.922 387.812 368.922Z" fill="white"/>
<path d="M394.116 396.87C400.251 396.87 405.225 390.609 405.225 382.884C405.225 375.16 400.251 368.898 394.116 368.898C387.982 368.898 383.008 375.16 383.008 382.884C383.008 390.609 387.982 396.87 394.116 396.87Z" fill="white"/>
<path d="M394.116 391.603C397.94 391.603 401.039 387.699 401.039 382.884C401.039 378.069 397.94 374.166 394.116 374.166C390.293 374.166 387.194 378.069 387.194 382.884C387.194 387.699 390.293 391.603 394.116 391.603Z" fill="white"/>
<path d="M388.787 382.899C388.787 386.036 390.024 388.576 392.512 388.576C395 388.576 397.022 386.036 397.022 382.899C397.022 379.761 395 377.226 392.512 377.226C390.024 377.226 388.787 379.752 388.787 382.899Z" fill="white"/>
<path d="M379.392 358.604L306.265 358.454L309.383 365.216H385.09L379.392 358.604Z" fill="white"/>
<path d="M373.009 353.716L369.144 354.709C367.514 355.129 366.574 356.644 367.046 358.094L367.208 358.594C367.68 360.044 369.384 360.879 371.015 360.46L374.879 359.466C376.51 359.047 377.45 357.532 376.978 356.082L376.815 355.582C376.344 354.132 374.639 353.297 373.009 353.716Z" fill="white"/>
<path d="M372.589 355.587H363.27C362.89 355.587 362.526 355.721 362.258 355.959C361.989 356.198 361.838 356.521 361.838 356.859C361.84 357.196 361.991 357.519 362.259 357.757C362.527 357.996 362.89 358.13 363.27 358.131H372.589C372.968 358.13 373.331 357.996 373.599 357.757C373.867 357.519 374.019 357.196 374.02 356.859C374.02 356.521 373.869 356.198 373.601 355.959C373.332 355.721 372.968 355.587 372.589 355.587Z" fill="white"/>
<path d="M372.692 374.903H368.821C368.469 374.903 368.131 374.779 367.882 374.557C367.633 374.336 367.493 374.036 367.493 373.722C367.494 373.41 367.635 373.11 367.883 372.889C368.132 372.668 368.469 372.543 368.821 372.542H372.692C373.044 372.543 373.381 372.668 373.629 372.889C373.878 373.11 374.019 373.41 374.02 373.722C374.02 374.036 373.88 374.336 373.631 374.557C373.382 374.779 373.044 374.903 372.692 374.903Z" fill="white"/>
<path d="M347.375 356.912H340.061L333.166 340.174H340.484L347.375 356.912Z" fill="white"/>
<path d="M353.68 356.912H350.026L343.13 340.174H346.784L353.68 356.912Z" fill="white"/>
<path d="M253.28 390.059C253.28 390.644 257.057 396.875 263.164 396.875H267.841C273.404 396.875 278.312 391.228 278.312 390.644" stroke="#1D1B84" stroke-width="0.4" stroke-linecap="round" stroke-linejoin="round" stroke-dasharray="2 2"/>
<path d="M234.71 385.863C241.937 388.769 244.045 390.272 251.971 390.273M382.691 390.273H334.919M286.41 390.273H315.122H255.079" stroke="#1D1B84" stroke-width="0.4" stroke-linecap="round" stroke-linejoin="round" stroke-dasharray="2 2"/>
<path d="M416.675 372.662C417.456 373.36 417.896 374.306 417.899 375.294V377.188C417.896 378.175 417.456 379.121 416.675 379.819" stroke="#1D1B84" stroke-width="0.4" stroke-linecap="round" stroke-linejoin="round" stroke-dasharray="2 2"/>
<path d="M415.93 370.782L414.371 384.051C414.227 385.223 413.606 386.308 412.627 387.1C411.648 387.891 410.377 388.334 409.057 388.345H405.221C405.76 386.57 406.029 384.738 406.019 382.899C406.019 374.383 400.317 367.447 393.319 367.447H387.05C380.037 367.447 374.35 374.383 374.35 382.899C374.344 384.744 374.62 386.581 375.17 388.359H336.914C337.462 386.581 337.738 384.744 337.734 382.899C337.734 374.383 332.037 367.447 325.039 367.447H318.77C311.757 367.447 306.071 374.383 306.071 382.899C306.071 383.732 306.127 384.564 306.238 385.39L299.186 384.345H288.208L278.086 381.593H233.917L233.027 383.964H230.27C226.623 365.881 232.428 350.892 232.428 350.892C244.481 345.441 257.138 341.13 270.193 338.029H349.382C352.707 338.034 355.93 339.054 358.516 340.921L378.337 355.177C382.043 357.846 386.346 359.776 390.956 360.835L411.943 365.679C413.176 365.971 414.252 366.644 414.982 367.579C415.712 368.513 416.048 369.648 415.93 370.782V370.782Z" stroke="#1D1B84" stroke-width="0.4" stroke-linecap="round" stroke-linejoin="round" stroke-dasharray="2 2"/>
<path d="M238.297 352.276C247.571 347.512 257.348 343.575 267.484 340.521C268.38 340.261 269.316 340.129 270.257 340.131H308.314C308.459 340.147 308.595 340.199 308.708 340.282C308.82 340.366 308.904 340.476 308.948 340.6C308.993 340.724 308.997 340.856 308.96 340.983C308.924 341.109 308.847 341.223 308.74 341.311C304.131 344.235 299.812 347.506 295.83 351.09C294.997 351.852 294.002 352.458 292.903 352.872C291.804 353.286 290.624 353.499 289.431 353.5H238.68C238.528 353.485 238.384 353.43 238.267 353.342C238.15 353.253 238.066 353.135 238.025 353.004C237.983 352.872 237.987 352.732 238.036 352.602C238.085 352.473 238.176 352.359 238.297 352.276Z" stroke="#1D1B84" stroke-width="0.4" stroke-linecap="round" stroke-linejoin="round" stroke-dasharray="2 2"/>
<path d="M288.062 361.211H229.903C229.035 366.673 228.854 372.205 229.364 377.703H289.627L288.062 361.211Z" stroke="#1D1B84" stroke-width="0.4" stroke-linecap="round" stroke-linejoin="round" stroke-dasharray="2 2"/>
<path d="M296.904 361.225H288.062L289.616 377.718H299.278L296.904 361.225Z" stroke="#1D1B84" stroke-width="0.4" stroke-linecap="round" stroke-linejoin="round" stroke-dasharray="2 2"/>
<path d="M324.893 341.933L327.262 354.391C327.321 354.7 327.303 355.017 327.211 355.32C327.118 355.622 326.953 355.903 326.727 356.143C326.5 356.383 326.218 356.575 325.899 356.707C325.581 356.839 325.234 356.907 324.883 356.907H310.208C309.562 356.907 308.926 356.758 308.365 356.472C307.803 356.187 307.334 355.775 307.004 355.279C306.674 354.782 306.494 354.218 306.483 353.64C306.472 353.063 306.629 352.493 306.939 351.986L313.17 341.865C313.486 341.344 313.954 340.909 314.523 340.604C315.093 340.3 315.743 340.138 316.407 340.135H322.482C323.058 340.128 323.618 340.305 324.06 340.635C324.502 340.965 324.798 341.425 324.893 341.933V341.933Z" stroke="#1D1B84" stroke-width="0.4" stroke-linecap="round" stroke-linejoin="round" stroke-dasharray="2 2"/>
<path d="M361.407 356.912H332.446C331.876 356.911 331.325 356.73 330.889 356.401C330.454 356.072 330.163 355.616 330.067 355.114L327.704 342.675C327.646 342.366 327.664 342.049 327.757 341.747C327.851 341.444 328.016 341.164 328.244 340.925C328.471 340.686 328.753 340.494 329.072 340.362C329.391 340.231 329.738 340.163 330.089 340.164L350.919 340.208C351.425 340.213 351.924 340.309 352.388 340.491C352.851 340.672 353.269 340.935 353.617 341.263L364.137 351.326C364.632 351.8 364.96 352.392 365.083 353.031C365.205 353.67 365.116 354.326 364.826 354.92C364.535 355.514 364.057 356.019 363.45 356.373C362.842 356.727 362.132 356.914 361.407 356.912V356.912Z" stroke="#1D1B84" stroke-width="0.4" stroke-linecap="round" stroke-linejoin="round" stroke-dasharray="2 2"/>
<path d="M280.051 374.903C282.664 374.903 284.782 372.735 284.782 370.06C284.782 367.384 282.664 365.216 280.051 365.216C277.437 365.216 275.319 367.384 275.319 370.06C275.319 372.735 277.437 374.903 280.051 374.903Z" stroke="#1D1B84" stroke-width="0.4" stroke-linecap="round" stroke-linejoin="round" stroke-dasharray="2 2"/>
<path d="M236.388 374.903C239.002 374.903 241.12 372.735 241.12 370.06C241.12 367.384 239.002 365.216 236.388 365.216C233.775 365.216 231.657 367.384 231.657 370.06C231.657 372.735 233.775 374.903 236.388 374.903Z" stroke="#1D1B84" stroke-width="0.4" stroke-linecap="round" stroke-linejoin="round" stroke-dasharray="2 2"/>
<path d="M325.04 396.87C331.145 396.87 336.094 390.609 336.094 382.884C336.094 375.16 331.145 368.898 325.04 368.898C318.934 368.898 313.985 375.16 313.985 382.884C313.985 390.609 318.934 396.87 325.04 396.87Z" stroke="#1D1B84" stroke-width="0.4" stroke-linecap="round" stroke-linejoin="round" stroke-dasharray="2 2"/>
<path d="M325.039 391.603C328.844 391.603 331.929 387.699 331.929 382.884C331.929 378.069 328.844 374.166 325.039 374.166C321.234 374.166 318.15 378.069 318.15 382.884C318.15 387.699 321.234 391.603 325.039 391.603Z" stroke="#1D1B84" stroke-width="0.4" stroke-linecap="round" stroke-linejoin="round" stroke-dasharray="2 2"/>
<path d="M319.758 382.899C319.758 386.036 320.988 388.576 323.464 388.576C325.94 388.576 327.953 386.036 327.953 382.899C327.953 379.761 325.973 377.212 323.464 377.212C320.955 377.212 319.758 379.751 319.758 382.899Z" stroke="#1D1B84" stroke-width="0.4" stroke-linecap="round" stroke-linejoin="round" stroke-dasharray="2 2"/>
<path d="M393.319 391.603C397.124 391.603 400.209 387.699 400.209 382.884C400.209 378.069 397.124 374.166 393.319 374.166C389.514 374.166 386.43 378.069 386.43 382.884C386.43 387.699 389.514 391.603 393.319 391.603Z" stroke="#1D1B84" stroke-width="0.4" stroke-linecap="round" stroke-linejoin="round" stroke-dasharray="2 2"/>
<path d="M393.254 396.693C399.36 396.693 404.309 390.431 404.309 382.707C404.309 374.983 399.36 368.721 393.254 368.721C387.149 368.721 382.2 374.983 382.2 382.707C382.2 390.431 387.149 396.693 393.254 396.693Z" stroke="#1D1B84" stroke-width="0.4" stroke-linecap="round" stroke-linejoin="round" stroke-dasharray="2 2"/>
<path d="M393.255 391.426C397.06 391.426 400.145 387.522 400.145 382.707C400.145 377.892 397.06 373.989 393.255 373.989C389.45 373.989 386.366 377.892 386.366 382.707C386.366 387.522 389.45 391.426 393.255 391.426Z" stroke="#1D1B84" stroke-width="0.4" stroke-linecap="round" stroke-linejoin="round" stroke-dasharray="2 2"/>
<path d="M387.974 382.722C387.974 385.859 389.204 388.399 391.68 388.399C394.156 388.399 396.169 385.859 396.169 382.722C396.169 379.584 394.189 377.035 391.68 377.035C389.171 377.035 387.974 379.574 387.974 382.722Z" stroke="#1D1B84" stroke-width="0.4" stroke-linecap="round" stroke-linejoin="round" stroke-dasharray="2 2"/>
<rect x="339.99" y="372.521" width="32.0665" height="2.33843" rx="1.16921" stroke="#1D1B84" stroke-width="0.4" stroke-linecap="round" stroke-linejoin="round" stroke-dasharray="2 2"/>
<defs>
<linearGradient id="paint0_linear" x1="449.568" y1="306.511" x2="194.143" y2="306.511" gradientUnits="userSpaceOnUse">
<stop stop-color="#3B3992"/>
<stop offset="1" stop-color="#1D1B84"/>
</linearGradient>
<linearGradient id="paint1_linear" x1="450.521" y1="305.829" x2="193.19" y2="305.829" gradientUnits="userSpaceOnUse">
<stop stop-color="#3B3992"/>
<stop offset="1" stop-color="#1D1B84"/>
</linearGradient>
</defs>
</svg>
