<svg width="126" height="44" viewBox="0 0 126 44" fill="none" xmlns="http://www.w3.org/2000/svg">
<path d="M64.4958 13.921L66.1445 12.6814L63.6894 8.46875L62.0406 9.70839L64.4958 13.921Z" fill="#FFB573"/>
<path d="M65.9214 12.0827L63.9126 13.2682C63.8953 13.2773 63.8799 13.2898 63.8673 13.3049C63.8548 13.32 63.8454 13.3375 63.8397 13.3563C63.834 13.3751 63.8321 13.3948 63.8342 13.4143C63.8362 13.4339 63.842 13.4528 63.8514 13.4701L64.6902 15.1169C64.7137 15.1592 64.7455 15.1962 64.7836 15.226C64.8217 15.2557 64.8655 15.2774 64.9121 15.2898C64.9588 15.3023 65.0076 15.3052 65.0554 15.2984C65.1032 15.2916 65.1492 15.2752 65.1906 15.2502C65.8818 14.8286 66.1158 14.5583 66.9905 14.0358C67.5341 13.7151 68.5565 13.189 69.4493 12.6268C70.342 12.0646 69.5249 11.5457 69.0029 11.7944C68.1893 12.1547 67.0229 12.1115 66.2814 12.0142C66.1572 11.9982 66.0311 12.0222 65.9214 12.0827Z" fill="#263238"/>
<path d="M66.7386 12.0217C66.5759 12.1134 66.4031 12.1859 66.2238 12.2379C66.215 12.241 66.2055 12.2415 66.1965 12.2391C66.1875 12.2368 66.1794 12.2319 66.1732 12.2249C66.167 12.2179 66.163 12.2093 66.1618 12.2C66.1606 12.1908 66.1621 12.1814 66.1662 12.1731C66.1986 12.101 66.501 11.4523 66.771 11.4127C66.8015 11.4075 66.8329 11.4104 66.862 11.4211C66.8911 11.4319 66.9168 11.4501 66.9366 11.474C66.9718 11.5054 66.998 11.5457 67.0126 11.5907C67.0271 11.6356 67.0295 11.6837 67.0194 11.7298C66.9644 11.8581 66.8646 11.9619 66.7386 12.0217ZM66.303 12.1118C66.663 11.9857 66.8898 11.8379 66.9258 11.7046C66.9311 11.6743 66.9286 11.6432 66.9185 11.6142C66.9084 11.5852 66.8911 11.5593 66.8682 11.5388C66.8582 11.527 66.8453 11.5178 66.8309 11.5121C66.8164 11.5065 66.8008 11.5045 66.7854 11.5064C66.6414 11.5316 66.4326 11.8559 66.303 12.1118Z" fill="#407BFF"/>
<path d="M66.2346 12.2339H66.213C66.2046 12.2342 66.1962 12.2324 66.1887 12.2286C66.1811 12.2249 66.1747 12.2192 66.1699 12.2123C66.1699 12.1943 65.8099 11.7006 65.8891 11.4195C65.8993 11.3833 65.9175 11.35 65.9425 11.3219C65.9674 11.2938 65.9984 11.2717 66.0331 11.2574C66.0699 11.2377 66.1122 11.231 66.1533 11.2381C66.1943 11.2453 66.2319 11.266 66.2598 11.297C66.3262 11.4398 66.3605 11.5954 66.3605 11.7529C66.3605 11.9103 66.3262 12.0659 66.2598 12.2087L66.2346 12.2339ZM66.0511 11.3655C66.0338 11.3745 66.0187 11.3873 66.0068 11.4029C65.995 11.4185 65.9868 11.4364 65.9827 11.4555C65.986 11.6862 66.063 11.9097 66.2023 12.0934C66.2916 11.8615 66.2916 11.6046 66.2023 11.3727C66.1864 11.3585 66.1659 11.3506 66.1447 11.3506C66.1234 11.3506 66.1029 11.3585 66.0871 11.3727L66.0511 11.3655Z" fill="#407BFF"/>
<path opacity="0.2" d="M62.0406 9.70839L63.6894 8.46875L65.0933 10.8796L63.3942 12.0327L62.0406 9.70839Z" fill="black"/>
<path d="M62.5231 11.8734L65.421 10.122L64.9206 8.94727L61.7959 10.9112L62.5231 11.8734Z" fill="#407BFF"/>
<path d="M69.975 14.8827L71.7137 13.744L69.489 9.46289L67.7502 10.6016L69.975 14.8827Z" fill="#FFB573"/>
<path opacity="0.2" d="M68.8302 12.6773L70.6013 11.5998L69.489 9.46289L67.7502 10.6016L68.8302 12.6773Z" fill="black"/>
<path d="M71.4182 12.8319L69.1071 13.1562C69.0877 13.158 69.0688 13.1637 69.0516 13.1728C69.0344 13.182 69.0191 13.1944 69.0067 13.2095C68.9943 13.2246 68.9851 13.242 68.9794 13.2607C68.9738 13.2793 68.9719 13.299 68.9739 13.3184L69.1179 15.1634C69.1236 15.2113 69.1389 15.2575 69.1628 15.2993C69.1867 15.3411 69.2187 15.3777 69.2569 15.407C69.2952 15.4362 69.3389 15.4575 69.3855 15.4695C69.4321 15.4815 69.4807 15.484 69.5283 15.4769C70.3311 15.3508 70.6443 15.1166 71.645 14.9148C72.6323 14.7663 73.6106 14.563 74.5753 14.3058C75.3817 14.0247 75.2125 13.2535 74.5249 13.3292C73.6394 13.4265 72.4334 13.286 71.789 12.9112C71.6773 12.8452 71.5471 12.8173 71.4182 12.8319Z" fill="#263238"/>
<path d="M67.8475 12.5041L70.9973 10.6987L70.5402 9.39062L67.0735 11.3149L67.8475 12.5041Z" fill="#407BFF"/>
<path d="M72.1959 13.0916C72.0104 13.1114 71.8234 13.1114 71.6379 13.0916C71.6284 13.0908 71.6193 13.0874 71.6116 13.0816C71.604 13.0759 71.5981 13.0681 71.5947 13.0591C71.5906 13.0513 71.5885 13.0427 71.5885 13.0339C71.5885 13.0251 71.5906 13.0164 71.5947 13.0087C71.6523 12.9546 72.1815 12.4753 72.4443 12.5402C72.4746 12.5466 72.5025 12.561 72.5253 12.5819C72.5481 12.6028 72.5649 12.6295 72.5739 12.6591C72.5941 12.7015 72.6027 12.7485 72.5989 12.7954C72.5951 12.8422 72.5791 12.8872 72.5523 12.9258C72.4566 13.0212 72.3304 13.0798 72.1959 13.0916ZM71.7603 13.0051C72.1203 13.0267 72.4083 12.9762 72.4803 12.8681C72.4958 12.8413 72.5039 12.8108 72.5039 12.7798C72.5039 12.7488 72.4958 12.7184 72.4803 12.6915C72.4762 12.6773 72.4683 12.6645 72.4576 12.6544C72.4468 12.6442 72.4335 12.6372 72.4191 12.6339C72.2931 12.5979 71.9763 12.8213 71.7603 13.0087V13.0051Z" fill="#407BFF"/>
<path d="M71.649 13.0918H71.6274C71.6196 13.0887 71.6126 13.0839 71.607 13.0776C71.6013 13.0714 71.5973 13.0639 71.595 13.0558C71.595 13.0305 71.4618 12.4467 71.6418 12.2161C71.6638 12.1863 71.6926 12.1623 71.7258 12.1459C71.759 12.1296 71.7957 12.1216 71.8326 12.1224C71.8737 12.1174 71.9152 12.1265 71.9505 12.1481C71.9858 12.1696 72.0127 12.2025 72.027 12.2413C72.0339 12.3994 72.0052 12.557 71.9428 12.7023C71.8805 12.8477 71.7862 12.9771 71.667 13.081C71.665 13.084 71.6623 13.0865 71.6592 13.0884C71.6561 13.0902 71.6526 13.0914 71.649 13.0918ZM71.8146 12.2197C71.7953 12.2219 71.7766 12.2281 71.7598 12.238C71.7431 12.248 71.7286 12.2614 71.7174 12.2774C71.6298 12.49 71.6146 12.7256 71.6742 12.9477C71.8432 12.764 71.937 12.5235 71.937 12.2738C71.937 12.2486 71.9082 12.2161 71.8362 12.2161L71.8146 12.2197Z" fill="#407BFF"/>
<path opacity="0.3" d="M66.7819 11.5093C66.7973 11.5074 66.8129 11.5094 66.8274 11.5151C66.8418 11.5207 66.8547 11.5299 66.8647 11.5418C66.8816 11.5581 66.8952 11.5777 66.9044 11.5994C66.9137 11.621 66.9186 11.6443 66.9187 11.6679L67.0015 11.758V11.7328C67.0116 11.6866 67.0092 11.6386 66.9947 11.5936C66.9801 11.5487 66.9539 11.5084 66.9187 11.4769C66.8989 11.453 66.8732 11.4348 66.8441 11.424C66.815 11.4133 66.7836 11.4104 66.7531 11.4156L66.6991 11.4373L66.7819 11.5093Z" fill="black"/>
<path opacity="0.3" d="M64.9204 8.94727L64.7728 9.03736L65.2048 9.61033L64.9204 8.94727Z" fill="black"/>
<path d="M26.9347 23.0986H22.7517C18.6766 23.0986 15.3755 27.7833 15.3755 33.5491C15.3755 39.3148 18.6766 43.9995 22.7517 43.9995H26.9347C31.0098 43.9995 34.3109 39.3148 34.3109 33.5491C34.3109 27.7833 31.0098 23.0986 26.9347 23.0986Z" fill="black"/>
<path d="M72.4949 23.0986H68.3082C64.2367 23.0986 60.932 27.7833 60.932 33.5491C60.932 39.3148 64.2367 43.9995 68.3082 43.9995H72.4949C76.5699 43.9995 79.871 39.3148 79.871 33.5491C79.871 27.7833 76.5699 23.0986 72.4949 23.0986Z" fill="black"/>
<path d="M49.9486 20.3281L1.1377 28.3642V31.0272L2.77924 35.3191L3.76561 35.766C8.58805 37.9389 13.8162 39.0628 19.1047 39.0632H114.023C115.577 39.0639 117.117 38.7577 118.553 38.1622C119.989 37.5668 121.294 36.6937 122.393 35.593L117.468 20.3425L49.9486 20.3281Z" fill="black"/>
<path d="M123.217 32.0645C122.48 32.0626 121.773 31.7685 121.252 31.2466C120.73 30.7246 120.436 30.0172 120.435 29.279V27.8627C120.436 27.1245 120.73 26.4171 121.252 25.8951C121.773 25.3731 122.48 25.0791 123.217 25.0771C123.955 25.0791 124.661 25.3731 125.183 25.8951C125.704 26.4171 125.998 27.1245 126 27.8627V29.279C125.998 30.0172 125.704 30.7246 125.183 31.2466C124.661 31.7685 123.955 32.0626 123.217 32.0645Z" fill="white"/>
<path d="M124.686 24.4901L123.646 34.4108C123.55 35.2877 123.136 36.0989 122.482 36.6906C121.829 37.2824 120.981 37.6136 120.1 37.6216H117.54C117.9 36.2945 118.079 34.9247 118.073 33.5496C118.073 27.182 114.268 21.9964 109.599 21.9964H105.416C100.736 21.9964 96.9416 27.182 96.9416 33.5496C96.9373 34.9291 97.1214 36.3028 97.4888 37.6324H71.962C72.3279 36.3025 72.5119 34.929 72.5092 33.5496C72.5092 27.182 68.7077 21.9964 64.0387 21.9964H59.8556C55.1757 21.9964 51.3815 27.182 51.3815 33.5496C51.3819 34.1722 51.4191 34.7943 51.493 35.4126L46.788 34.6306H39.4622L32.7088 32.573H3.23656L2.64258 34.3459H0.803033C-1.63049 20.8252 2.24299 9.61802 2.24299 9.61802C10.285 5.54193 18.7307 2.31841 27.4422 0H80.2813C82.4999 0.00333946 84.6505 0.766301 86.376 2.16216L99.602 12.8216C102.075 14.8177 104.946 16.2603 108.022 17.0523L122.026 20.6739C122.848 20.8926 123.567 21.3959 124.054 22.0945C124.541 22.7931 124.765 23.6418 124.686 24.4901Z" fill="#407BFF"/>
<path d="M6.15974 10.6524C12.3481 7.09076 18.8713 4.14687 25.6351 1.86319C26.2326 1.66854 26.8572 1.57002 27.4855 1.5713H52.8791C52.9757 1.58337 53.0668 1.62277 53.1418 1.6849C53.2168 1.74703 53.2724 1.8293 53.3023 1.92203C53.3322 2.01476 53.335 2.1141 53.3104 2.20837C53.2858 2.30263 53.2348 2.38791 53.1635 2.45418C50.0882 4.64006 47.2061 7.08629 44.549 9.76589C43.9931 10.3358 43.3291 10.7887 42.5959 11.0982C41.8627 11.4076 41.0752 11.5672 40.2795 11.5677H6.41534C6.31372 11.5567 6.21773 11.5155 6.13974 11.4494C6.06176 11.3832 6.00537 11.2952 5.97786 11.1967C5.95034 11.0982 5.95297 10.9936 5.98539 10.8966C6.01781 10.7996 6.07854 10.7145 6.15974 10.6524Z" fill="#263238"/>
<path d="M39.365 17.334H0.5582C-0.0212692 21.4182 -0.142018 25.5544 0.198211 29.6655H40.409L39.365 17.334Z" fill="#263238"/>
<path opacity="0.4" d="M45.2655 17.3438H39.3652L40.402 29.6753H46.8494L45.2655 17.3438Z" fill="#263238"/>
<path d="M63.9416 2.9195L65.522 12.2348C65.5613 12.466 65.5497 12.703 65.488 12.9292C65.4263 13.1555 65.316 13.3655 65.1649 13.5446C65.0137 13.7238 64.8252 13.8677 64.6127 13.9664C64.4002 14.065 64.1687 14.1161 63.9344 14.1159H54.1427C53.7114 14.1163 53.2875 14.0042 52.9126 13.7907C52.5377 13.5773 52.2248 13.2698 52.0046 12.8985C51.7845 12.5272 51.6647 12.105 51.6571 11.6733C51.6495 11.2416 51.7543 10.8154 51.9612 10.4366L56.1191 2.86904C56.3302 2.47935 56.642 2.15366 57.022 1.92605C57.402 1.69845 57.8362 1.57732 58.279 1.57535H62.3325C62.7169 1.57004 63.0905 1.70268 63.3856 1.94924C63.6808 2.19579 63.878 2.53997 63.9416 2.9195Z" fill="#263238"/>
<path d="M88.3057 14.1192H68.9815C68.6011 14.1186 68.233 13.9834 67.9425 13.7374C67.652 13.4915 67.4577 13.1506 67.394 12.7751L65.8172 3.47417C65.7785 3.24295 65.7906 3.00605 65.8527 2.78C65.9149 2.55395 66.0256 2.34421 66.1771 2.16542C66.3286 1.98664 66.5173 1.84312 66.73 1.74489C66.9427 1.64665 67.1742 1.59607 67.4084 1.59669L81.3076 1.62913C81.6451 1.63329 81.9783 1.70528 82.2875 1.84085C82.5967 1.97642 82.8756 2.17279 83.1075 2.41831L90.1273 9.94263C90.4574 10.2968 90.6768 10.74 90.7584 11.2174C90.8401 11.6949 90.7804 12.1858 90.5868 12.6298C90.3932 13.0737 90.0741 13.4513 89.6687 13.7159C89.2634 13.9806 88.7897 14.1208 88.3057 14.1192Z" fill="#263238"/>
<path d="M34.0192 27.5714C35.7628 27.5714 37.1763 25.9499 37.1763 23.9497C37.1763 21.9496 35.7628 20.3281 34.0192 20.3281C32.2755 20.3281 30.8621 21.9496 30.8621 23.9497C30.8621 25.9499 32.2755 27.5714 34.0192 27.5714Z" fill="white"/>
<path d="M4.88537 27.5714C6.62899 27.5714 8.04248 25.9499 8.04248 23.9497C8.04248 21.9496 6.62899 20.3281 4.88537 20.3281C3.14175 20.3281 1.72827 21.9496 1.72827 23.9497C1.72827 25.9499 3.14175 27.5714 4.88537 27.5714Z" fill="white"/>
<path d="M59.8554 23.0986H64.0385V43.9995H59.8554C55.7803 43.9995 52.4792 39.3148 52.4792 33.5491C52.4792 27.7833 55.7803 23.0986 59.8554 23.0986Z" fill="black"/>
<path d="M64.0388 43.9964C68.1125 43.9964 71.4149 39.3143 71.4149 33.5387C71.4149 27.7631 68.1125 23.0811 64.0388 23.0811C59.965 23.0811 56.6626 27.7631 56.6626 33.5387C56.6626 39.3143 59.965 43.9964 64.0388 43.9964Z" fill="#263238"/>
<path d="M64.0387 40.0574C66.5776 40.0574 68.6358 37.1388 68.6358 33.5385C68.6358 29.9382 66.5776 27.0195 64.0387 27.0195C61.4998 27.0195 59.4417 29.9382 59.4417 33.5385C59.4417 37.1388 61.4998 40.0574 64.0387 40.0574Z" fill="#E0E0E0"/>
<path d="M60.5145 33.5491C60.5145 35.8951 61.3353 37.7942 62.9877 37.7942C64.64 37.7942 65.9828 35.8951 65.9828 33.5491C65.9828 31.2032 64.6616 29.2969 62.9877 29.2969C61.3137 29.2969 60.5145 31.196 60.5145 33.5491Z" fill="#263238"/>
<path d="M105.412 23.0986H109.599V43.9995H105.412C101.341 43.9995 98.0397 39.3148 98.0397 33.5491C98.0397 27.7833 101.341 23.0986 105.412 23.0986Z" fill="black"/>
<path d="M109.599 43.9964C113.672 43.9964 116.975 39.3143 116.975 33.5387C116.975 27.7631 113.672 23.0811 109.599 23.0811C105.525 23.0811 102.223 27.7631 102.223 33.5387C102.223 39.3143 105.525 43.9964 109.599 43.9964Z" fill="#263238"/>
<path d="M109.599 40.0574C112.138 40.0574 114.196 37.1388 114.196 33.5385C114.196 29.9382 112.138 27.0195 109.599 27.0195C107.06 27.0195 105.002 29.9382 105.002 33.5385C105.002 37.1388 107.06 40.0574 109.599 40.0574Z" fill="#E0E0E0"/>
<path d="M106.06 33.5491C106.06 35.895 106.881 37.7941 108.533 37.7941C110.185 37.7941 111.528 35.895 111.528 33.5491C111.528 31.2031 110.185 29.3076 108.533 29.3076C106.881 29.3076 106.06 31.1959 106.06 33.5491Z" fill="#263238"/>
<path opacity="0.1" d="M99.8216 15.3842L51.2627 15.2725L53.3326 20.3283H103.605L99.8216 15.3842Z" fill="white"/>
<path d="M95.5827 11.7295L93.0167 12.4724C91.9338 12.7859 91.3098 13.9188 91.623 15.0028L91.731 15.3767C92.0442 16.4607 93.1759 17.0854 94.2588 16.7719L96.8248 16.029C97.9077 15.7155 98.5317 14.5826 98.2185 13.4986L98.1105 13.1247C97.7973 12.0407 96.6656 11.416 95.5827 11.7295Z" fill="#263238"/>
<path d="M95.3037 13.1279H89.1155C88.8635 13.1279 88.6217 13.2282 88.4435 13.4066C88.2653 13.585 88.1652 13.827 88.1652 14.0793C88.1661 14.3313 88.2665 14.5727 88.4446 14.7509C88.6226 14.9292 88.8638 15.0297 89.1155 15.0306H95.3037C95.5555 15.0297 95.7967 14.9292 95.9747 14.7509C96.1527 14.5727 96.2532 14.3313 96.2541 14.0793C96.2541 13.827 96.154 13.585 95.9757 13.4066C95.7975 13.2282 95.5558 13.1279 95.3037 13.1279Z" fill="#263238"/>
<path d="M95.3722 27.5714H92.8019C92.568 27.5714 92.3436 27.4784 92.1782 27.3128C92.0128 27.1473 91.9199 26.9227 91.9199 26.6885C91.9209 26.4547 92.0141 26.2307 92.1793 26.0653C92.3445 25.8999 92.5683 25.8066 92.8019 25.8057H95.3722C95.6058 25.8066 95.8296 25.8999 95.9948 26.0653C96.16 26.2307 96.2532 26.4547 96.2542 26.6885C96.2542 26.9227 96.1613 27.1473 95.9959 27.3128C95.8305 27.4784 95.6061 27.5714 95.3722 27.5714Z" fill="white"/>
<path opacity="0.1" d="M78.5608 14.1188H73.7045L69.1255 1.60352H73.9853L78.5608 14.1188Z" fill="white"/>
<path opacity="0.1" d="M82.7473 14.1188H80.321L75.7419 1.60352H78.1683L82.7473 14.1188Z" fill="white"/>
<path opacity="0.3" d="M126 27.8626V29.2752C125.999 29.8048 125.848 30.3232 125.563 30.7698C125.279 31.2164 124.874 31.5729 124.395 31.7978C124.246 31.8642 124.117 31.9677 124.02 32.0983C123.923 32.2289 123.861 32.3823 123.84 32.5437L123.642 34.414C123.552 35.292 123.14 36.1055 122.486 36.6976C121.832 37.2898 120.982 37.6187 120.1 37.6212H119.898C119.749 37.6211 119.602 37.6569 119.47 37.7257C118.512 38.2229 117.491 38.5867 116.435 38.8068C116.287 38.8368 116.147 38.9014 116.027 38.9953C115.908 39.0891 115.812 39.2097 115.748 39.3473C115.182 40.5944 114.348 41.7016 113.307 42.5905C112.277 43.4848 110.963 43.9841 109.599 43.9995H105.416C102.921 43.9995 100.736 42.2482 99.3827 39.5671C99.3052 39.4122 99.1859 39.282 99.0382 39.1916C98.8906 39.1011 98.7206 39.0539 98.5475 39.0554H79.3637C79.1902 39.0541 79.0197 39.1013 78.8715 39.1917C78.7234 39.2821 78.6033 39.4121 78.5249 39.5671C77.1858 42.2482 74.9862 43.9995 72.4987 43.9995H68.3084C67.6948 44.0003 67.0858 43.8942 66.5085 43.686C66.2883 43.6086 66.0483 43.6086 65.8281 43.686C65.2506 43.8935 64.6417 43.9996 64.0282 43.9995H59.8559C57.3648 43.9995 55.176 42.2482 53.8261 39.5671C53.7486 39.4122 53.6293 39.282 53.4817 39.1916C53.334 39.1011 53.164 39.0539 52.9909 39.0554H33.8035C33.6301 39.0545 33.4598 39.1019 33.3117 39.1923C33.1636 39.2826 33.0435 39.4124 32.9647 39.5671C31.6292 42.2482 29.4296 43.9995 26.9385 43.9995H22.7483C20.2283 43.9995 17.982 42.1977 16.6536 39.4266C16.5813 39.2824 16.4731 39.1592 16.3394 39.0689C16.2058 38.9787 16.0512 38.9244 15.8905 38.9113C11.7011 38.5517 7.60288 37.4843 3.76965 35.7545L3.13247 35.4698C2.90567 35.3657 2.72862 35.1769 2.63928 34.9437C2.57135 34.7646 2.4506 34.6104 2.29307 34.5016C2.13554 34.3929 1.94868 34.3346 1.75731 34.3347H1.59891C1.37621 34.3352 1.16058 34.2565 0.990466 34.1126C0.820357 33.9687 0.706833 33.769 0.670142 33.5491C0.454149 32.2338 0.310154 30.9401 0.194957 29.6788C0.194957 29.6428 0.194957 29.6104 0.194957 29.5743C0.155358 29.0554 0.115759 28.5401 0.0905602 28.032C0.0905602 27.9239 0.0905602 27.823 0.0905602 27.7185C0.0689609 27.2896 0.0545631 26.8644 0.0473633 26.45C0.0473633 26.3347 0.0473633 26.2266 0.0473633 26.1113C0.0473633 25.6176 0.0473633 25.1275 0.0473633 24.6482C0.0473633 24.5833 0.0473633 24.5185 0.0473633 24.4572C0.0473633 24.0176 0.047362 23.5815 0.079761 23.1563C0.079761 23.0734 0.079761 22.9869 0.079761 22.9041C0.12296 21.9167 0.186557 20.9689 0.270555 20.0608C0.270555 20.0428 0.270555 20.0248 0.270555 20.0104C0.56448 16.6165 1.1964 13.2605 2.1569 9.99236C2.19414 9.87135 2.25586 9.7593 2.33824 9.66321C2.42061 9.56711 2.52185 9.48902 2.63568 9.43379C6.70355 7.38695 10.595 5.71128 14.0473 4.35993C15.6967 3.71812 17.4507 3.3882 19.2204 3.38695H79.9577C82.4278 3.37156 84.8413 4.12733 86.8623 5.54911L101.849 16.2734C104.717 18.3083 107.959 19.7547 111.388 20.5293L123.959 23.4122C124.176 23.4645 124.367 23.592 124.499 23.7721C124.631 23.9522 124.695 24.1732 124.679 24.396V24.4788L124.636 24.9113C124.624 25.0613 124.648 25.2121 124.708 25.3504C124.768 25.4886 124.86 25.6101 124.978 25.7041C125.298 25.9649 125.556 26.2941 125.733 26.6676C125.91 27.041 126.001 27.4493 126 27.8626Z" fill="black"/>
</svg>
