<svg width="147" height="94" viewBox="0 0 147 94" fill="none" xmlns="http://www.w3.org/2000/svg">
<path d="M25.15 38.5581C20.808 50.0542 21.643 63.8134 27.8024 74.5463C31.3024 80.6424 37.1349 86.4018 43.886 88.2903C50.5343 90.1469 56.3289 88.3942 62.105 84.8532C68.4605 80.9561 74.1672 77.3359 81.8541 77.6945C90.4476 78.0975 97.7767 81.3305 105.931 76.4679C111.832 72.939 115.991 66.4701 116.873 59.4426C117.42 55.0715 116.66 50.3477 113.984 46.8905C111.518 43.7023 107.739 41.9249 103.975 40.7357C98.5779 39.0228 91.6664 38.2315 87.6473 33.6276C80.9669 25.9727 78.0985 15.9606 61.4931 13.3083C48.6428 11.2608 37.1541 17.3707 30.3657 28.1739C28.2876 31.4541 26.5405 34.9326 25.15 38.5581Z" fill="#407BFF" fill-opacity="0.15"/>
<path d="M136.022 25.9224H113.119C112.198 25.9224 111.451 26.6693 111.451 27.5907V78.4263C111.451 79.3477 112.198 80.0946 113.119 80.0946H136.022C136.943 80.0946 137.69 79.3477 137.69 78.4263V27.5907C137.69 26.6693 136.943 25.9224 136.022 25.9224Z" fill="#407BFF"/>
<path d="M134.984 25.9224H112.081C111.16 25.9224 110.413 26.6693 110.413 27.5907V78.4263C110.413 79.3477 111.16 80.0946 112.081 80.0946H134.984C135.905 80.0946 136.652 79.3477 136.652 78.4263V27.5907C136.652 26.6693 135.905 25.9224 134.984 25.9224Z" fill="#407BFF"/>
<path opacity="0.7" d="M134.984 25.9224H112.081C111.16 25.9224 110.413 26.6693 110.413 27.5907V78.4263C110.413 79.3477 111.16 80.0946 112.081 80.0946H134.984C135.905 80.0946 136.652 79.3477 136.652 78.4263V27.5907C136.652 26.6693 135.905 25.9224 134.984 25.9224Z" fill="white"/>
<g opacity="0.9">
<path opacity="0.9" d="M115.68 25.9224H114.26V80.0946H115.68V25.9224Z" fill="white"/>
<path opacity="0.9" d="M130.71 25.9224H129.839V80.0946H130.71V25.9224Z" fill="white"/>
<path opacity="0.9" d="M110.413 37.689V39.1095L136.652 37.4842V36.0637L110.413 37.689Z" fill="white"/>
<path opacity="0.9" d="M110.415 71.2482V72.6687H136.654V71.2482H110.415Z" fill="white"/>
<path opacity="0.9" d="M110.413 44.7809V45.5549H136.652V44.7809H110.413Z" fill="white"/>
<path opacity="0.9" d="M110.413 63.0931V64.7202L136.652 55.8414V54.2144L110.413 63.0931Z" fill="white"/>
<path opacity="0.9" d="M119.609 25.9224H118.189L122.007 80.0964H123.427L119.609 25.9224Z" fill="white"/>
</g>
<g clip-path="url(#clip0)">
<g opacity="0.5">
<path d="M141.506 73.5683H115.729V65.5444H138.451L140.571 67.2655C140.864 67.5031 141.101 67.8031 141.262 68.1437C141.424 68.4843 141.508 68.8568 141.506 69.2337V73.5683Z" fill="#407BFF"/>
<path opacity="0.5" d="M141.506 73.5683H115.729V65.5444H138.451L140.571 67.2655C140.864 67.5031 141.101 67.8031 141.262 68.1437C141.424 68.4843 141.508 68.8568 141.506 69.2337V73.5683Z" fill="black"/>
<path d="M115.581 72.8446C115.581 69.9159 116.915 67.5422 118.545 67.5422H115.4C113.76 67.5422 112.437 69.91 112.437 72.8446C112.437 75.7792 113.77 78.1484 115.4 78.1484H118.551C116.907 78.1484 115.581 75.7732 115.581 72.8446Z" fill="#263238"/>
<path d="M118.551 78.1469C120.191 78.1469 121.52 75.773 121.52 72.8446C121.52 69.9162 120.191 67.5422 118.551 67.5422C116.911 67.5422 115.581 69.9162 115.581 72.8446C115.581 75.773 116.911 78.1469 118.551 78.1469Z" fill="#263238"/>
<path d="M118.789 76.9795C119.952 76.9795 120.895 75.1283 120.895 72.8447C120.895 70.5612 119.952 68.71 118.789 68.71C117.626 68.71 116.684 70.5612 116.684 72.8447C116.684 75.1283 117.626 76.9795 118.789 76.9795Z" fill="white"/>
<path d="M98.4641 72.8446C98.4641 69.9159 99.7978 67.5422 101.428 67.5422H98.2833C96.6429 67.5422 95.3196 69.91 95.3196 72.8446C95.3196 75.7792 96.6533 78.1484 98.2833 78.1484H101.434C99.7933 78.1484 98.4641 75.7732 98.4641 72.8446Z" fill="#263238"/>
<path d="M101.434 78.1469C103.074 78.1469 104.403 75.773 104.403 72.8446C104.403 69.9162 103.074 67.5422 101.434 67.5422C99.7937 67.5422 98.4641 69.9162 98.4641 72.8446C98.4641 75.773 99.7937 78.1469 101.434 78.1469Z" fill="#263238"/>
<path d="M135.932 72.8446C135.932 69.9159 137.265 67.5422 138.895 67.5422H135.751C134.112 67.5422 132.787 69.91 132.787 72.8446C132.787 75.7792 134.121 78.1484 135.751 78.1484H138.901C137.262 78.1484 135.932 75.7732 135.932 72.8446Z" fill="#263238"/>
<path d="M138.901 78.1469C140.541 78.1469 141.871 75.773 141.871 72.8446C141.871 69.9162 140.541 67.5422 138.901 67.5422C137.261 67.5422 135.932 69.9162 135.932 72.8446C135.932 75.773 137.261 78.1469 138.901 78.1469Z" fill="#263238"/>
<path d="M112.072 74.3244H108.262L108.049 74.1172C107.83 73.8979 107.532 73.7744 107.222 73.7739H97.6995C97.3892 73.7744 97.0918 73.8979 96.8726 74.1172L96.7422 74.246H96.3955C96.126 74.246 95.8593 74.1928 95.6105 74.0895C95.3617 73.9863 95.1358 73.8349 94.9458 73.6442C94.7557 73.4534 94.6053 73.2271 94.5032 72.9781C94.401 72.7291 94.3491 72.4625 94.3505 72.1934V69.0635H115.959L114.24 72.7957C114.082 73.2432 113.788 73.6306 113.4 73.9044C113.011 74.1782 112.547 74.3249 112.072 74.3244Z" fill="#407BFF"/>
<path opacity="0.2" d="M112.072 74.3244H108.262L108.049 74.1172C107.83 73.8979 107.532 73.7744 107.222 73.7739H97.6995C97.3892 73.7744 97.0918 73.8979 96.8726 74.1172L96.7422 74.246H96.3955C96.126 74.246 95.8593 74.1928 95.6105 74.0895C95.3617 73.9863 95.1358 73.8349 94.9458 73.6442C94.7557 73.4534 94.6053 73.2271 94.5032 72.9781C94.401 72.7291 94.3491 72.4625 94.3505 72.1934V69.0635H115.959L114.24 72.7957C114.082 73.2432 113.788 73.6306 113.4 73.9044C113.011 74.1782 112.547 74.3249 112.072 74.3244Z" fill="black"/>
<path d="M134.565 55.7197C134.552 55.7199 134.539 55.7163 134.528 55.7093C134.52 55.7045 134.512 55.6981 134.506 55.6905C134.5 55.6828 134.496 55.674 134.494 55.6646C134.491 55.6552 134.491 55.6454 134.492 55.6358C134.493 55.6262 134.497 55.617 134.502 55.6087L135.539 53.8328C135.543 53.8234 135.549 53.815 135.557 53.8081C135.565 53.8012 135.574 53.796 135.584 53.7928C135.594 53.7897 135.604 53.7886 135.614 53.7897C135.625 53.7909 135.635 53.7941 135.644 53.7993C135.653 53.8045 135.66 53.8116 135.666 53.8199C135.673 53.8283 135.677 53.8379 135.679 53.848C135.681 53.8582 135.681 53.8686 135.679 53.8788C135.677 53.8889 135.672 53.8984 135.666 53.9068L134.629 55.6827C134.623 55.6938 134.613 55.7031 134.602 55.7096C134.591 55.7161 134.578 55.7196 134.565 55.7197Z" fill="#263238"/>
<path d="M140.036 64.5544V62.5359C140.036 61.4748 138.492 56.4685 136.369 55.5302C134.245 54.592 129.108 54.1747 125.871 54.3463C122.635 54.518 118.314 61.278 118.314 61.278L118.783 67.0909C119.441 67.0909 121.537 66.8926 121.844 72.6434C121.864 73.0488 122.04 73.4308 122.335 73.7102C122.63 73.9895 123.021 74.1449 123.428 74.144H134.758C135.139 74.1437 135.506 74.006 135.793 73.7564C136.08 73.5067 136.267 73.1619 136.32 72.7855C136.616 70.7358 137.39 67.0865 139.255 67.0865C140.564 67.0865 141.502 68.2053 141.502 69.4883C141.502 68.0788 141.16 66.6902 140.503 65.4424L140.036 64.5544Z" fill="#407BFF"/>
<path d="M114.016 54.3462C108.123 54.3462 101.446 61.2779 101.446 61.2779H118.32C118.32 61.2779 122.636 54.5193 125.877 54.3462H114.016Z" fill="#407BFF"/>
<path opacity="0.4" d="M114.378 54.3462C109.414 54.3462 104.206 59.2653 102.687 60.8147C102.65 60.853 102.624 60.9016 102.614 60.9545C102.604 61.0073 102.61 61.0619 102.631 61.1114C102.652 61.1609 102.687 61.2032 102.732 61.2328C102.777 61.2624 102.829 61.2781 102.883 61.2779H116.496C117.043 61.2794 117.584 61.1518 118.073 60.9055C118.562 60.6592 118.987 60.301 119.311 59.8602C120.775 57.8683 123.595 54.469 125.877 54.3462H114.378Z" fill="white"/>
<path d="M118.32 61.2778L112.087 66.1895L95.3137 66.1362C95.3137 66.1362 94.3505 67.5347 94.3505 69.0634H115.959C116.313 68.1267 117.555 67.0907 118.789 67.0907C118.789 65.3475 118.32 61.2778 118.32 61.2778Z" fill="#407BFF"/>
<path opacity="0.2" d="M114.24 64.7424C114.222 64.7423 114.205 64.7358 114.192 64.7241C114.179 64.7124 114.17 64.6963 114.168 64.6788C114.165 64.6596 114.17 64.6402 114.182 64.6247C114.193 64.6092 114.211 64.5989 114.23 64.5959C115.726 64.3537 117.126 63.7033 118.275 62.7165C118.502 62.5257 118.65 62.2571 118.69 61.9633C118.73 61.6694 118.659 61.3713 118.49 61.1271C118.484 61.1192 118.479 61.1101 118.477 61.1004C118.474 61.0907 118.474 61.0805 118.475 61.0706C118.477 61.0607 118.48 61.0512 118.486 61.0427C118.491 61.0341 118.498 61.0268 118.506 61.021C118.515 61.0153 118.524 61.0113 118.534 61.0093C118.544 61.0073 118.554 61.0073 118.564 61.0093C118.574 61.0114 118.583 61.0154 118.591 61.0211C118.599 61.0269 118.606 61.0343 118.612 61.0428C118.801 61.3174 118.88 61.6523 118.836 61.9824C118.791 62.3125 118.625 62.6143 118.37 62.829C117.201 63.8341 115.775 64.4959 114.252 64.741L114.24 64.7424Z" fill="black"/>
<path d="M95.3137 66.1362C95.3137 66.1362 98.2597 62.7074 101.446 61.2778H118.32L112.087 66.1895L95.3137 66.1362Z" fill="#407BFF"/>
<path d="M108.361 66.1365H97.2964V66.4576H108.361V66.1365Z" fill="#263238"/>
<path d="M108.132 65.4942L108.725 64.9023C108.858 64.7693 109.027 64.6774 109.211 64.6374L113.687 63.6636C113.845 63.6292 114.008 63.6343 114.163 63.6784L114.403 63.745C114.563 63.79 114.709 63.8746 114.827 63.991C114.945 64.1074 115.032 64.2518 115.079 64.4107C115.127 64.5697 115.133 64.738 115.098 64.9C115.062 65.062 114.986 65.2125 114.877 65.3373L113.914 66.4369C113.748 66.6261 113.516 66.7446 113.265 66.7684L108.919 67.162C108.775 67.1757 108.63 67.1576 108.495 67.109C108.359 67.0604 108.235 66.9825 108.133 66.8808C107.949 66.6969 107.846 66.4477 107.846 66.1878C107.846 65.928 107.948 65.6786 108.132 65.4942Z" fill="white"/>
<path d="M97.6091 65.808L97.1186 64.892C97.0495 64.7637 96.9471 64.6564 96.8222 64.5812C96.7035 64.5101 96.5685 64.4708 96.4302 64.4669C96.2919 64.463 96.1549 64.4947 96.0324 64.559L95.6604 64.7544C95.4777 64.8509 95.3389 65.0134 95.2722 65.2087L95.0454 65.8791C95.0077 65.9895 94.9945 66.1067 95.0065 66.2227C95.0186 66.3387 95.0556 66.4507 95.1152 66.551C95.1748 66.6513 95.2555 66.7375 95.3516 66.8037C95.4478 66.8698 95.5572 66.9144 95.6723 66.9342L96.6962 67.1103C96.8633 67.1392 97.0351 67.1148 97.1875 67.0407C97.3399 66.9666 97.4651 66.8465 97.5453 66.6974L97.6135 66.5717C97.6763 66.454 97.7087 66.3226 97.7079 66.1893C97.7071 66.056 97.6732 65.925 97.6091 65.808Z" fill="white"/>
<path opacity="0.4" d="M121.766 61.4747H137.368C137.5 61.4748 137.63 61.444 137.748 61.3847C137.867 61.3254 137.969 61.2393 138.048 61.1333C138.127 61.0273 138.18 60.9044 138.203 60.7743C138.226 60.6442 138.218 60.5105 138.18 60.3841C137.824 59.2002 137.142 57.3489 136.118 56.4047C136.004 56.3007 135.865 56.2291 135.714 56.1975C133.875 55.8083 130.918 55.5493 128.725 55.3984C127.731 55.3305 126.734 55.4784 125.803 55.8319C124.871 56.1855 124.028 56.7363 123.33 57.4465C122.495 58.2884 121.742 59.2064 121.079 60.1887C120.996 60.3132 120.948 60.4578 120.941 60.6072C120.934 60.7566 120.967 60.9052 121.037 61.0371C121.108 61.1691 121.213 61.2794 121.341 61.3565C121.47 61.4336 121.617 61.4744 121.766 61.4747Z" fill="white"/>
<path d="M111.679 70.798C111.679 71.2834 111.182 71.6785 110.568 71.6785C109.955 71.6785 109.457 71.2834 109.457 70.798C109.457 70.3126 109.953 69.9189 110.568 69.9189C111.183 69.9189 111.679 70.3126 111.679 70.798Z" fill="#263238"/>
<path d="M102.724 65.4646C103.089 65.4646 103.267 65.8375 103.122 66.2963C102.976 66.755 102.564 67.1294 102.198 67.1294C101.832 67.1294 101.656 66.7565 101.801 66.2963C101.947 65.836 102.36 65.4646 102.724 65.4646Z" fill="#263238"/>
<path d="M95.247 70.798C95.247 71.2834 95.0988 71.6785 94.9343 71.6785C94.7698 71.6785 94.6201 71.2834 94.6201 70.798C94.6201 70.3126 94.7683 69.9189 94.9343 69.9189C95.1003 69.9189 95.247 70.3126 95.247 70.798Z" fill="#263238"/>
<path d="M121.286 61.3341V60.8353C121.286 60.6922 121.318 60.5509 121.38 60.4216C121.441 60.2923 121.531 60.1784 121.642 60.0881C121.753 59.9977 121.883 59.9333 122.022 59.8995C122.161 59.8657 122.306 59.8634 122.447 59.8927L124.346 60.2878C124.563 60.333 124.758 60.4514 124.898 60.623C125.038 60.7947 125.114 61.0092 125.114 61.2305V61.3341C125.114 61.5893 125.013 61.8341 124.832 62.0148C124.651 62.1954 124.406 62.2971 124.151 62.2974H122.251C121.995 62.2974 121.75 62.1959 121.569 62.0153C121.388 61.8346 121.286 61.5896 121.286 61.3341Z" fill="#263238"/>
<path d="M131.282 55.6056C131.282 55.6056 131.028 55.5805 130.587 55.542C132.54 59.5376 132.042 61.4748 132.042 61.4748H133.532C133.547 59.0419 131.282 55.6056 131.282 55.6056Z" fill="#263238"/>
<path opacity="0.2" d="M114.809 59.6856C114.779 59.9997 114.633 60.2912 114.399 60.5035C114.165 60.7158 113.861 60.8336 113.545 60.834H105.865C105.304 60.834 105.101 60.2095 105.507 59.7448C106.24 58.9117 107.036 58.1359 107.887 57.4244C109.334 56.208 111.13 55.5761 112.809 55.693L113.443 55.7388C113.717 55.7602 113.976 55.8692 114.183 56.0497C114.389 56.2303 114.532 56.4726 114.59 56.7407C114.814 57.7053 114.888 58.6986 114.809 59.6856Z" fill="#407BFF"/>
<path opacity="0.2" d="M132.219 73.0919C132.2 73.0919 132.181 73.0841 132.167 73.0702C132.153 73.0563 132.145 73.0375 132.145 73.0179C132.145 71.5203 132.91 65.3448 133.11 64.4199C133.304 63.5216 133.304 62.5182 133.11 61.8656C133.105 61.8468 133.107 61.8265 133.116 61.8093C133.126 61.7921 133.142 61.7794 133.16 61.7739C133.179 61.7688 133.199 61.7712 133.217 61.7805C133.234 61.7899 133.247 61.8056 133.252 61.8242C133.452 62.499 133.452 63.5305 133.252 64.4509C133.052 65.3714 132.291 71.5262 132.291 73.0179C132.291 73.037 132.283 73.0554 132.27 73.0692C132.257 73.083 132.239 73.0911 132.219 73.0919Z" fill="black"/>
<path opacity="0.2" d="M132.023 64.4983H130.216C130.182 64.4994 130.148 64.4926 130.117 64.4785C130.085 64.4644 130.058 64.4432 130.036 64.4168C130.014 64.3903 129.999 64.3592 129.991 64.3259C129.983 64.2925 129.983 64.2579 129.991 64.2245L130.028 64.0158C130.043 63.9407 130.083 63.8729 130.141 63.8232C130.199 63.7735 130.273 63.7449 130.349 63.7421H132.156C132.19 63.741 132.224 63.7477 132.255 63.7618C132.287 63.776 132.314 63.7971 132.336 63.8235C132.358 63.85 132.373 63.8811 132.381 63.9144C132.389 63.9478 132.389 63.9825 132.381 64.0158L132.344 64.2245C132.329 64.2996 132.289 64.3675 132.231 64.4172C132.173 64.4668 132.099 64.4954 132.023 64.4983Z" fill="black"/>
</g>
<path d="M89.9321 78.3115H48.2246V65.3289H84.9881L88.4192 68.1136C88.8935 68.4979 89.2755 68.9835 89.5373 69.5345C89.7991 70.0856 89.934 70.6882 89.9321 71.2982V78.3115Z" fill="#407BFF"/>
<path opacity="0.5" d="M89.9321 78.3115H48.2246V65.3289H84.9881L88.4192 68.1136C88.8935 68.4979 89.2755 68.9835 89.5373 69.5345C89.7991 70.0856 89.934 70.6882 89.9321 71.2982V78.3115Z" fill="black"/>
<path d="M47.9848 77.1405C47.9848 72.402 50.1428 68.5613 52.7802 68.5613H47.6923C45.0381 68.5613 42.897 72.3924 42.897 77.1405C42.897 81.8887 45.0549 85.7222 47.6923 85.7222H52.7898C50.1308 85.7222 47.9848 81.8791 47.9848 77.1405Z" fill="#263238"/>
<path d="M52.7897 85.7198C55.4434 85.7198 57.5946 81.8787 57.5946 77.1405C57.5946 72.4023 55.4434 68.5613 52.7897 68.5613C50.136 68.5613 47.9847 72.4023 47.9847 77.1405C47.9847 81.8787 50.136 85.7198 52.7897 85.7198Z" fill="#263238"/>
<path d="M53.1758 83.8308C55.0574 83.8308 56.5829 80.8356 56.5829 77.1407C56.5829 73.4459 55.0574 70.4507 53.1758 70.4507C51.2941 70.4507 49.7687 73.4459 49.7687 77.1407C49.7687 80.8356 51.2941 83.8308 53.1758 83.8308Z" fill="white"/>
<path d="M20.2893 75.9228C20.2893 71.1842 22.4472 67.3435 25.0846 67.3435H19.9968C17.3425 67.3435 15.2014 71.1746 15.2014 75.9228C15.2014 80.6709 17.3593 84.5044 19.9968 84.5044H25.0942C22.44 84.5044 20.2893 80.6614 20.2893 75.9228Z" fill="#263238"/>
<path d="M25.0942 84.502C27.7479 84.502 29.8992 80.661 29.8992 75.9228C29.8992 71.1846 27.7479 67.3435 25.0942 67.3435C22.4405 67.3435 20.2893 71.1846 20.2893 75.9228C20.2893 80.661 22.4405 84.502 25.0942 84.502Z" fill="#263238"/>
<path d="M80.912 77.1405C80.912 72.402 83.0699 68.5613 85.7073 68.5613H80.6194C77.9676 68.5613 75.8241 72.3924 75.8241 77.1405C75.8241 81.8887 77.982 85.7222 80.6194 85.7222H85.7169C83.0651 85.7222 80.912 81.8791 80.912 77.1405Z" fill="#263238"/>
<path d="M85.717 85.7198C88.3707 85.7198 90.522 81.8787 90.522 77.1405C90.522 72.4023 88.3707 68.5613 85.717 68.5613C83.0634 68.5613 80.9121 72.4023 80.9121 77.1405C80.9121 81.8787 83.0634 85.7198 85.717 85.7198Z" fill="#263238"/>
<path d="M86.1053 83.8308C87.987 83.8308 89.5124 80.8356 89.5124 77.1407C89.5124 73.4459 87.987 70.4507 86.1053 70.4507C84.2237 70.4507 82.6982 73.4459 82.6982 77.1407C82.6982 80.8356 84.2237 83.8308 86.1053 83.8308Z" fill="white"/>
<path d="M42.3071 79.5352H36.1427L35.7974 79.1999C35.4428 78.845 34.9616 78.6452 34.4595 78.6444H19.0521C18.55 78.6452 18.0688 78.845 17.7142 79.1999L17.5032 79.4083H16.9421C16.5062 79.4083 16.0746 79.3222 15.672 79.1551C15.2695 78.988 14.904 78.7431 14.5965 78.4345C14.289 78.1259 14.0457 77.7597 13.8804 77.3568C13.7151 76.954 13.6311 76.5225 13.6333 76.0872V71.0229H48.5962L45.8149 77.0617C45.5584 77.7858 45.0832 78.4126 44.4549 78.8556C43.8266 79.2986 43.0762 79.536 42.3071 79.5352Z" fill="#407BFF"/>
<path opacity="0.2" d="M42.3071 79.5352H36.1427L35.7974 79.1999C35.4428 78.845 34.9616 78.6452 34.4595 78.6444H19.0521C18.55 78.6452 18.0688 78.845 17.7142 79.1999L17.5032 79.4083H16.9421C16.5062 79.4083 16.0746 79.3222 15.672 79.1551C15.2695 78.988 14.904 78.7431 14.5965 78.4345C14.289 78.1259 14.0457 77.7597 13.8804 77.3568C13.7151 76.954 13.6311 76.5225 13.6333 76.0872V71.0229H48.5962L45.8149 77.0617C45.5584 77.7858 45.0832 78.4126 44.4549 78.8556C43.8266 79.2986 43.0762 79.536 42.3071 79.5352Z" fill="black"/>
<path d="M78.7014 49.4322C78.6802 49.4326 78.6593 49.4267 78.6414 49.4154C78.6277 49.4077 78.6157 49.3974 78.606 49.3849C78.5964 49.3725 78.5894 49.3583 78.5853 49.3431C78.5813 49.3279 78.5804 49.3121 78.5826 49.2965C78.5848 49.281 78.5901 49.266 78.5983 49.2526L80.2766 46.3793C80.2835 46.364 80.2936 46.3503 80.3061 46.3392C80.3186 46.328 80.3333 46.3196 80.3493 46.3145C80.3653 46.3094 80.3822 46.3077 80.3988 46.3095C80.4155 46.3114 80.4316 46.3166 80.4461 46.3251C80.4606 46.3335 80.4732 46.3448 80.483 46.3584C80.4928 46.372 80.4997 46.3875 80.5032 46.4039C80.5066 46.4203 80.5066 46.4372 80.5031 46.4536C80.4996 46.47 80.4927 46.4854 80.4828 46.499L78.8044 49.3723C78.794 49.3904 78.779 49.4054 78.7609 49.4159C78.7428 49.4264 78.7223 49.432 78.7014 49.4322Z" fill="#263238"/>
<path d="M87.5536 63.7271V60.461C87.5536 58.7442 85.0552 50.6439 81.6193 49.1258C78.1835 47.6077 69.8708 46.9325 64.6342 47.2102C59.3977 47.488 52.4061 58.4258 52.4061 58.4258L53.1662 67.8311C54.2308 67.8311 57.6211 67.5103 58.1174 76.8151C58.1506 77.471 58.4354 78.0891 58.9125 78.5411C59.3897 78.9931 60.0228 79.2445 60.6805 79.243H79.0131C79.6289 79.2425 80.2239 79.0198 80.6882 78.6159C81.1526 78.212 81.4552 77.654 81.5402 77.0449C82.0198 73.7286 83.2713 67.8239 86.29 67.8239C88.4072 67.8239 89.9249 69.6341 89.9249 71.7101C89.9255 69.4294 89.3709 67.1828 88.3089 65.1637L87.5536 63.7271Z" fill="#407BFF"/>
<path d="M45.4529 47.21C35.9173 47.21 25.1134 58.4255 25.1134 58.4255H52.4157C52.4157 58.4255 59.4001 47.4901 64.6438 47.21H45.4529Z" fill="#407BFF"/>
<path opacity="0.4" d="M46.0379 47.21C38.0057 47.21 29.5803 55.1691 27.1227 57.676C27.0616 57.7381 27.0203 57.8168 27.0039 57.9022C26.9876 57.9876 26.9969 58.076 27.0308 58.1561C27.0646 58.2363 27.1215 58.3046 27.1941 58.3526C27.2668 58.4005 27.3521 58.4259 27.4392 58.4255H49.4642C50.3507 58.428 51.2253 58.2216 52.0168 57.823C52.8084 57.4244 53.4947 56.8449 54.0198 56.1316C56.3887 52.9087 60.9514 47.4087 64.6438 47.21H46.0379Z" fill="white"/>
<path d="M52.4157 58.4258L42.331 66.3729L15.1918 66.2867C15.1918 66.2867 13.6333 68.5495 13.6333 71.0229H48.5962C49.1692 69.5072 51.1785 67.8311 53.1757 67.8311C53.1757 65.0105 52.4157 58.4258 52.4157 58.4258Z" fill="#407BFF"/>
<path opacity="0.2" d="M45.8149 64.031C45.7863 64.0307 45.7586 64.0201 45.7371 64.0012C45.7155 63.9823 45.7015 63.9564 45.6975 63.928C45.6933 63.8969 45.7016 63.8655 45.7204 63.8404C45.7392 63.8154 45.7671 63.7987 45.7982 63.7939C48.2189 63.402 50.4842 62.3496 52.3438 60.753C52.7115 60.4442 52.9508 60.0097 53.015 59.5342C53.0793 59.0588 52.964 58.5765 52.6915 58.1814C52.6815 58.1685 52.6743 58.1538 52.6702 58.1381C52.6661 58.1223 52.6652 58.1059 52.6677 58.0899C52.6702 58.0738 52.6759 58.0584 52.6845 58.0446C52.6931 58.0309 52.7044 58.019 52.7178 58.0097C52.7311 58.0004 52.7463 57.994 52.7622 57.9907C52.7781 57.9875 52.7946 57.9875 52.8105 57.9908C52.8264 57.9941 52.8415 58.0005 52.8549 58.0099C52.8682 58.0192 52.8795 58.0311 52.8881 58.0449C53.1937 58.4891 53.3229 59.031 53.2507 59.5652C53.1784 60.0993 52.9099 60.5875 52.4973 60.935C50.6051 62.5612 48.2987 63.632 45.8341 64.0286L45.8149 64.031Z" fill="black"/>
<path d="M15.1918 66.2867C15.1918 66.2867 19.9583 60.7388 25.1133 58.4258H52.4156L42.331 66.3729L15.1918 66.2867Z" fill="#407BFF"/>
<path d="M36.3033 66.2866H18.3999V66.8062H36.3033V66.2866Z" fill="#263238"/>
<path d="M35.9317 65.2474L36.8907 64.2896C37.1064 64.0745 37.3793 63.9257 37.6772 63.861L44.9205 62.2854C45.1751 62.2298 45.4395 62.238 45.6902 62.3094L46.0786 62.4171C46.3372 62.4899 46.5732 62.6268 46.7645 62.8151C46.9558 63.0035 47.0963 63.2371 47.1729 63.4943C47.2495 63.7514 47.2597 64.0238 47.2025 64.2859C47.1453 64.5481 47.0226 64.7915 46.8459 64.9935L45.2874 66.7726C45.0187 67.0787 44.643 67.2706 44.2372 67.309L37.2048 67.9459C36.9725 67.968 36.7382 67.9387 36.5186 67.86C36.2989 67.7814 36.0994 67.6554 35.9341 67.4909C35.6367 67.1933 35.4694 66.7901 35.469 66.3696C35.4685 65.9492 35.6349 65.5456 35.9317 65.2474Z" fill="white"/>
<path d="M18.9058 65.755L18.1122 64.2729C18.0005 64.0653 17.8348 63.8916 17.6327 63.77C17.4406 63.655 17.2222 63.5913 16.9984 63.585C16.7746 63.5787 16.5529 63.6301 16.3547 63.7341L15.7529 64.0502C15.4573 64.2063 15.2326 64.4692 15.1247 64.7853L14.7578 65.8699C14.6968 66.0485 14.6753 66.2382 14.6948 66.4259C14.7143 66.6136 14.7744 66.7948 14.8708 66.9571C14.9672 67.1194 15.0977 67.2589 15.2533 67.3659C15.4089 67.473 15.5859 67.545 15.7721 67.5772L17.4289 67.8621C17.6991 67.9088 17.9772 67.8694 18.2238 67.7495C18.4703 67.6296 18.6729 67.4353 18.8027 67.1941L18.913 66.9905C19.0145 66.8002 19.067 66.5876 19.0658 66.3719C19.0645 66.1562 19.0095 65.9442 18.9058 65.755Z" fill="white"/>
<path opacity="0.4" d="M57.9927 58.744H83.2354C83.4494 58.7442 83.6604 58.6943 83.8516 58.5983C84.0429 58.5024 84.209 58.3632 84.3367 58.1917C84.4644 58.0202 84.5501 57.8212 84.587 57.6107C84.6239 57.4002 84.611 57.184 84.5493 56.9793C83.9738 55.0638 82.8709 52.0684 81.2141 50.5407C81.03 50.3724 80.8039 50.2566 80.5596 50.2055C77.584 49.5757 72.8007 49.1567 69.2521 48.9125C67.6437 48.8026 66.0305 49.0419 64.5235 49.6139C63.0165 50.186 61.6514 51.0773 60.5222 52.2264C59.172 53.5885 57.9527 55.0739 56.8801 56.6633C56.7457 56.8647 56.6685 57.0987 56.6567 57.3404C56.6449 57.5821 56.699 57.8225 56.8131 58.036C56.9273 58.2495 57.0972 58.4281 57.3049 58.5527C57.5127 58.6774 57.7503 58.7435 57.9927 58.744Z" fill="white"/>
<path d="M41.6717 73.829C41.6717 74.6144 40.8661 75.2537 39.8734 75.2537C38.8808 75.2537 38.0752 74.6144 38.0752 73.829C38.0752 73.0437 38.8784 72.4067 39.8734 72.4067C40.8685 72.4067 41.6717 73.0437 41.6717 73.829Z" fill="#263238"/>
<path d="M27.1825 65.1995C27.7724 65.1995 28.0601 65.8029 27.8251 66.5451C27.5902 67.2874 26.9236 67.8932 26.3314 67.8932C25.7392 67.8932 25.4538 67.2898 25.6888 66.5451C25.9238 65.8005 26.5927 65.1995 27.1825 65.1995Z" fill="#263238"/>
<path d="M15.0839 73.829C15.0839 74.6144 14.8442 75.2537 14.578 75.2537C14.3119 75.2537 14.0697 74.6144 14.0697 73.829C14.0697 73.0437 14.3095 72.4067 14.578 72.4067C14.8465 72.4067 15.0839 73.0437 15.0839 73.829Z" fill="#263238"/>
<path d="M57.2158 58.5167V57.7098C57.2156 57.4782 57.267 57.2495 57.3665 57.0404C57.466 56.8312 57.6109 56.6468 57.7908 56.5007C57.9707 56.3545 58.1809 56.2503 58.4062 56.1956C58.6315 56.141 58.8662 56.1372 59.0932 56.1845L62.167 56.8239C62.518 56.897 62.833 57.0885 63.0591 57.3663C63.2853 57.6441 63.4089 57.9911 63.409 58.3491V58.5167C63.409 58.9297 63.2449 59.3258 62.9527 59.6181C62.6605 59.9104 62.2641 60.0749 61.8505 60.0755H58.7767C58.3627 60.0755 57.9657 59.9113 57.673 59.6189C57.3803 59.3266 57.2158 58.9301 57.2158 58.5167Z" fill="#263238"/>
<path d="M73.3882 49.2477C73.3882 49.2477 72.9782 49.207 72.2637 49.1448C75.4238 55.6098 74.6182 58.7441 74.6182 58.7441H77.0302C77.0542 54.8076 73.3882 49.2477 73.3882 49.2477Z" fill="#263238"/>
<path opacity="0.2" d="M46.7357 55.8494C46.6868 56.3575 46.4503 56.8293 46.0723 57.1727C45.6942 57.5162 45.2016 57.7069 44.6905 57.7075H32.2633C31.357 57.7075 31.0285 56.697 31.6855 55.9452C32.8709 54.5971 34.1583 53.3419 35.5361 52.1907C37.8763 50.2225 40.7823 49.2001 43.4988 49.3892L44.525 49.4634C44.9679 49.4979 45.3879 49.6744 45.7223 49.9665C46.0566 50.2586 46.2876 50.6507 46.3808 51.0845C46.7435 52.6452 46.8632 54.2523 46.7357 55.8494Z" fill="#407BFF"/>
<path opacity="0.2" d="M74.9059 77.5405C74.8741 77.5405 74.8436 77.5279 74.8211 77.5055C74.7986 77.483 74.786 77.4526 74.786 77.4208C74.786 74.9976 76.0232 65.0057 76.3469 63.5091C76.661 62.0557 76.661 60.4323 76.3469 59.3763C76.338 59.3458 76.3416 59.3131 76.3569 59.2852C76.3722 59.2574 76.3979 59.2368 76.4284 59.2279C76.4589 59.2196 76.4915 59.2235 76.5192 59.2387C76.5469 59.2539 76.5676 59.2792 76.5771 59.3093C76.9008 60.4011 76.9008 62.0701 76.5771 63.5594C76.2534 65.0488 75.021 75.0072 75.021 77.4208C75.021 77.4518 75.009 77.4815 74.9876 77.5038C74.9661 77.5261 74.9369 77.5393 74.9059 77.5405Z" fill="black"/>
<path opacity="0.2" d="M74.587 63.6359H71.6642C71.6087 63.6376 71.5536 63.6267 71.5031 63.6038C71.4525 63.581 71.4079 63.5468 71.3727 63.504C71.3375 63.4612 71.3126 63.4109 71.2999 63.3569C71.2873 63.303 71.2872 63.2469 71.2997 63.1929L71.3597 62.8553C71.3839 62.7337 71.4484 62.6239 71.5428 62.5435C71.6372 62.4632 71.756 62.4169 71.88 62.4123H74.8027C74.8582 62.4105 74.9133 62.4215 74.9639 62.4443C75.0144 62.4672 75.059 62.5013 75.0942 62.5441C75.1294 62.5869 75.1543 62.6373 75.167 62.6912C75.1796 62.7452 75.1797 62.8013 75.1672 62.8553L75.1073 63.1929C75.0831 63.3144 75.0186 63.4242 74.9241 63.5046C74.8297 63.585 74.7109 63.6312 74.587 63.6359Z" fill="black"/>
</g>
<path d="M132.456 17.9681H132.15C132.15 17.1887 132.038 16.4134 131.817 15.6662L132.123 15.5804C132.349 16.3561 132.461 17.1603 132.456 17.9681ZM131.137 14.0529C130.436 12.7947 129.412 11.7462 128.171 11.0155C126.929 10.2848 125.515 9.89833 124.075 9.89596V9.58984C125.57 9.59134 127.038 9.99222 128.326 10.751C129.615 11.5099 130.677 12.5991 131.403 13.906L131.137 14.0529Z" fill="#407BFF"/>
<path d="M124.075 10.6614C122.138 10.6622 120.28 11.4324 118.91 12.8026C117.541 14.1728 116.771 16.0309 116.771 17.9683C116.771 25.0088 124.075 29.8331 124.075 29.8331C124.075 29.8331 131.385 25.0058 131.385 17.9683C131.384 16.0301 130.614 14.1715 129.243 12.8013C127.872 11.4311 126.013 10.6614 124.075 10.6614ZM124.075 21.4089C123.401 21.4083 122.742 21.2078 122.181 20.8328C121.621 20.4577 121.184 19.9249 120.927 19.3017C120.669 18.6786 120.602 17.993 120.734 17.3317C120.866 16.6704 121.191 16.0631 121.668 15.5865C122.145 15.1099 122.753 14.7854 123.414 14.6541C124.075 14.5228 124.761 14.5905 125.384 14.8487C126.007 15.1068 126.539 15.5439 126.914 16.1046C127.288 16.6654 127.488 17.3245 127.488 17.9989C127.488 18.4469 127.4 18.8906 127.228 19.3046C127.057 19.7185 126.805 20.0945 126.488 20.4112C126.171 20.7279 125.795 20.9791 125.381 21.1503C124.967 21.3214 124.523 21.4093 124.075 21.4089Z" fill="#407BFF"/>
<defs>
<clipPath id="clip0">
<rect width="136.162" height="39.3971" fill="white" transform="translate(0.816162 46.3088)"/>
</clipPath>
</defs>
</svg>
